999
dxflib 3.17.0.0
  0
SECTION
  2
HEADER
  9
$ACADVER
  1
AC1015
  9
$HANDSEED
  5
FFFF
  9
$DIMADEC
 70
0
  9
$DIMASZ
 40
2.5
  9
$DIMAUNIT
 70
0
  9
$DIMAZIN
 70
2
  9
$DIMDEC
 70
4
  9
$DIMDSEP
 70
46
  9
$DIMEXE
 40
1.25
  9
$DIMEXO
 40
0.625
  9
$DIMGAP
 40
0.625
  9
$DIMLUNIT
 70
2
  9
$DIMSCALE
 40
1.0
  9
$DIMTSZ
 40
0.0
  9
$DIMTXT
 40
2.5
  9
$DIMZIN
 70
8
  9
$DWGCODEPAGE
  3
ANSI_1252
  9
$INSUNITS
 70
4
  9
$LTSCALE
 40
1.0
  9
$MAXACTVP
 70
64
  9
$MEASUREMENT
 70
1
  9
$PDMODE
 70
0
  9
$PDSIZE
 40
0.0
  0
ENDSEC
  0
SECTION
  2
TABLES
  0
TABLE
  2
VPORT
  5
8
100
AcDbSymbolTable
 70
1
  0
VPORT
  5
30
100
AcDbSymbolTableRecord
100
AcDbViewportTableRecord
  2
*Active
 70
0
 10
0.0
 20
0.0
 11
1.0
 21
1.0
 12
286.30555555555549
 22
148.5
 13
0.0
 23
0.0
 14
10.0
 24
10.0
 15
10.0
 25
10.0
 16
0.0
 26
0.0
 36
1.0
 17
0.0
 27
0.0
 37
0.0
 40
297.0
 41
1.92798353909465
 42
50.0
 43
0.0
 44
0.0
 50
0.0
 51
0.0
 71
0
 72
100
 73
1
 74
3
 75
1
 76
1
 77
0
 78
0
281
0
 65
1
110
0.0
120
0.0
130
0.0
111
1.0
121
0.0
131
0.0
112
0.0
122
1.0
132
0.0
 79
0
146
0.0
  0
ENDTAB
  0
TABLE
  2
LTYPE
  5
5
100
AcDbSymbolTable
 70
41
  0
LTYPE
  5
16
100
AcDbSymbolTableRecord
100
AcDbLinetypeTableRecord
  2
Continuous
 70
0
  3
Solid line
 72
65
 73
0
 40
0.0
  0
LTYPE
  5
14
100
AcDbSymbolTableRecord
100
AcDbLinetypeTableRecord
  2
BYBLOCK
 70
0
  3

 72
65
 73
0
 40
0.0
  0
LTYPE
  5
31
100
AcDbSymbolTableRecord
100
AcDbLinetypeTableRecord
  2
CENTER
 70
0
  3
Center ____ _ ____ _ ____ _ ____ _ ____ _ ____
 72
65
 73
4
 40
50.800000000000004
 49
31.75
 74
0
 49
-6.3499999999999996
 74
0
 49
6.3499999999999996
 74
0
 49
-6.3499999999999996
 74
0
  0
LTYPE
  5
32
100
AcDbSymbolTableRecord
100
AcDbLinetypeTableRecord
  2
DASHDOTX2
 70
0
  3
Dash dot (2x) ____  .  ____  .  ____  .  ___
 72
65
 73
4
 40
50.799999999999997
 49
25.399999999999999
 74
0
 49
-12.649999999999999
 74
0
 49
0.1
 74
0
 49
-12.649999999999999
 74
0
  0
LTYPE
  5
33
100
AcDbSymbolTableRecord
100
AcDbLinetypeTableRecord
  2
DOT
 70
0
  3
Dot . . . . . . . . . . . . . . . . . . . . . . . .
 72
65
 73
2
 40
6.3499999999999996
 49
0.1
 74
0
 49
-6.25
 74
0
  0
LTYPE
  5
34
100
AcDbSymbolTableRecord
100
AcDbLinetypeTableRecord
  2
CENTERX2
 70
0
  3
Center (2x) ________  __  ________  __  _____
 72
65
 73
4
 40
101.60000000000001
 49
63.5
 74
0
 49
-12.699999999999999
 74
0
 49
12.699999999999999
 74
0
 49
-12.699999999999999
 74
0
  0
LTYPE
  5
35
100
AcDbSymbolTableRecord
100
AcDbLinetypeTableRecord
  2
DIVIDE2
 70
0
  3
Divide (.5x) __..__..__..__..__..__..__..__.._
 72
65
 73
6
 40
15.874999999999998
 49
6.3499999999999996
 74
0
 49
-3.125
 74
0
 49
0.1
 74
0
 49
-3.0750000000000002
 74
0
 49
0.1
 74
0
 49
-3.125
 74
0
  0
LTYPE
  5
36
100
AcDbSymbolTableRecord
100
AcDbLinetypeTableRecord
  2
PHANTOMX2
 70
0
  3
Phantom (2x) ____________    ____    ____   _
 72
65
 73
6
 40
127.00000000000001
 49
63.5
 74
0
 49
-12.699999999999999
 74
0
 49
12.699999999999999
 74
0
 49
-12.699999999999999
 74
0
 49
12.699999999999999
 74
0
 49
-12.699999999999999
 74
0
  0
LTYPE
  5
37
100
AcDbSymbolTableRecord
100
AcDbLinetypeTableRecord
  2
ACAD_ISO05W100
 70
0
  3
ISO long-dash double-dot ____ .. ____ .. ____ . 
 72
65
 73
6
 40
33.000000000000007
 49
24.0
 74
0
 49
-2.9500000000000002
 74
0
 49
0.1
 74
0
 49
-2.9000000000000004
 74
0
 49
0.1
 74
0
 49
-2.9500000000000002
 74
0
  0
LTYPE
  5
38
100
AcDbSymbolTableRecord
100
AcDbLinetypeTableRecord
  2
DOT2
 70
0
  3
Dot (.5x) ........................................
 72
65
 73
2
 40
3.1749999999999998
 49
0.1
 74
0
 49
-3.0749999999999997
 74
0
  0
LTYPE
  5
39
100
AcDbSymbolTableRecord
100
AcDbLinetypeTableRecord
  2
ACAD_ISO09W100
 70
0
  3
ISO long-dash double-short-dash ____ __ __ ____
 72
65
 73
6
 40
45.0
 49
24.0
 74
0
 49
-3.0
 74
0
 49
6.0
 74
0
 49
-3.0
 74
0
 49
6.0
 74
0
 49
-3.0
 74
0
  0
LTYPE
  5
3A
100
AcDbSymbolTableRecord
100
AcDbLinetypeTableRecord
  2
DASHDOT2
 70
0
  3
Dash dot (.5x) _._._._._._._._._._._._._._._.
 72
65
 73
4
 40
12.699999999999999
 49
6.3499999999999996
 74
0
 49
-3.125
 74
0
 49
0.1
 74
0
 49
-3.125
 74
0
  0
LTYPE
  5
3B
100
AcDbSymbolTableRecord
100
AcDbLinetypeTableRecord
  2
PHANTOM
 70
0
  3
Phantom ______  __  __  ______  __  __  ______ 
 72
65
 73
6
 40
63.500000000000007
 49
31.75
 74
0
 49
-6.3499999999999996
 74
0
 49
6.3499999999999996
 74
0
 49
-6.3499999999999996
 74
0
 49
6.3499999999999996
 74
0
 49
-6.3499999999999996
 74
0
  0
LTYPE
  5
3C
100
AcDbSymbolTableRecord
100
AcDbLinetypeTableRecord
  2
ACAD_ISO14W100
 70
0
  3
ISO dash triple-dot __ . . . __ . . . __ . . . _
 72
65
 73
8
 40
24.000000000000004
 49
12.0
 74
0
 49
-2.9500000000000002
 74
0
 49
0.1
 74
0
 49
-2.9000000000000004
 74
0
 49
0.1
 74
0
 49
-2.9000000000000004
 74
0
 49
0.1
 74
0
 49
-2.9500000000000002
 74
0
  0
LTYPE
  5
3D
100
AcDbSymbolTableRecord
100
AcDbLinetypeTableRecord
  2
DIVIDE
 70
0
  3
Divide ____ . . ____ . . ____ . . ____ . . ____
 72
65
 73
6
 40
31.750000000000004
 49
12.699999999999999
 74
0
 49
-6.2999999999999998
 74
0
 49
0.1
 74
0
 49
-6.25
 74
0
 49
0.1
 74
0
 49
-6.2999999999999998
 74
0
  0
LTYPE
  5
3E
100
AcDbSymbolTableRecord
100
AcDbLinetypeTableRecord
  2
PHANTOM2
 70
0
  3
Phantom (.5x) ___ _ _ ___ _ _ ___ _ _ ___ _ _
 72
65
 73
6
 40
31.750000000000004
 49
15.875
 74
0
 49
-3.1749999999999998
 74
0
 49
3.1749999999999998
 74
0
 49
-3.1749999999999998
 74
0
 49
3.1749999999999998
 74
0
 49
-3.1749999999999998
 74
0
  0
LTYPE
  5
3F
100
AcDbSymbolTableRecord
100
AcDbLinetypeTableRecord
  2
ACAD_ISO13W100
 70
0
  3
ISO double-dash double-dot __ __ . . __ __ . . _
 72
65
 73
8
 40
36.000000000000007
 49
12.0
 74
0
 49
-3.0
 74
0
 49
12.0
 74
0
 49
-2.9500000000000002
 74
0
 49
0.1
 74
0
 49
-2.9000000000000004
 74
0
 49
0.1
 74
0
 49
-2.9500000000000002
 74
0
  0
LTYPE
  5
40
100
AcDbSymbolTableRecord
100
AcDbLinetypeTableRecord
  2
ACAD_ISO12W100
 70
0
  3
ISO dash double-dot __ . . __ . . __ . . __ . . 
 72
65
 73
6
 40
21.0
 49
12.0
 74
0
 49
-2.9500000000000002
 74
0
 49
0.1
 74
0
 49
-2.9000000000000004
 74
0
 49
0.1
 74
0
 49
-2.9500000000000002
 74
0
  0
LTYPE
  5
41
100
AcDbSymbolTableRecord
100
AcDbLinetypeTableRecord
  2
ACAD_ISO06W100
 70
0
  3
ISO long-dash triple-dot ____ ... ____ ... ____
 72
65
 73
8
 40
36.000000000000007
 49
24.0
 74
0
 49
-2.9500000000000002
 74
0
 49
0.1
 74
0
 49
-2.9000000000000004
 74
0
 49
0.1
 74
0
 49
-2.9000000000000004
 74
0
 49
0.1
 74
0
 49
-2.9500000000000002
 74
0
  0
LTYPE
  5
42
100
AcDbSymbolTableRecord
100
AcDbLinetypeTableRecord
  2
ACAD_ISO02W100
 70
0
  3
ISO dash __ __ __ __ __ __ __ __ __ __ __ __ __
 72
65
 73
2
 40
15.0
 49
12.0
 74
0
 49
-3.0
 74
0
  0
LTYPE
  5
43
100
AcDbSymbolTableRecord
100
AcDbLinetypeTableRecord
  2
ACAD_ISO11W100
 70
0
  3
ISO double-dash dot __ __ . __ __ . __ __ . __ _
 72
65
 73
6
 40
33.0
 49
12.0
 74
0
 49
-3.0
 74
0
 49
12.0
 74
0
 49
-2.9500000000000002
 74
0
 49
0.1
 74
0
 49
-2.9500000000000002
 74
0
  0
LTYPE
  5
15
100
AcDbSymbolTableRecord
100
AcDbLinetypeTableRecord
  2
BYLAYER
 70
0
  3

 72
65
 73
0
 40
0.0
  0
LTYPE
  5
44
100
AcDbSymbolTableRecord
100
AcDbLinetypeTableRecord
  2
ACAD_ISO08W100
 70
0
  3
ISO long-dash short-dash ____ __ ____ __ ____ _
 72
65
 73
4
 40
36.0
 49
24.0
 74
0
 49
-3.0
 74
0
 49
6.0
 74
0
 49
-3.0
 74
0
  0
LTYPE
  5
45
100
AcDbSymbolTableRecord
100
AcDbLinetypeTableRecord
  2
DOTX2
 70
0
  3
Dot (2x) .  .  .  .  .  .  .  .  .  .  .  .  .  .
 72
65
 73
2
 40
12.699999999999999
 49
0.1
 74
0
 49
-12.6
 74
0
  0
LTYPE
  5
46
100
AcDbSymbolTableRecord
100
AcDbLinetypeTableRecord
  2
DIVIDEX2
 70
0
  3
Divide (2x) ________  .  .  ________  .  .  _
 72
65
 73
6
 40
63.5
 49
25.399999999999999
 74
0
 49
-12.649999999999999
 74
0
 49
0.1
 74
0
 49
-12.599999999999998
 74
0
 49
0.1
 74
0
 49
-12.649999999999999
 74
0
  0
LTYPE
  5
47
100
AcDbSymbolTableRecord
100
AcDbLinetypeTableRecord
  2
ACAD_ISO03W100
 70
0
  3
ISO dash space __    __    __    __    __    __
 72
65
 73
2
 40
30.0
 49
12.0
 74
0
 49
-18.0
 74
0
  0
LTYPE
  5
48
100
AcDbSymbolTableRecord
100
AcDbLinetypeTableRecord
  2
ACAD_ISO07W100
 70
0
  3
ISO dot . . . . . . . . . . . . . . . . . . . . 
 72
65
 73
2
 40
3.0
 49
0.1
 74
0
 49
-2.8999999999999999
 74
0
  0
LTYPE
  5
49
100
AcDbSymbolTableRecord
100
AcDbLinetypeTableRecord
  2
ACAD_ISO04W100
 70
0
  3
ISO long-dash dot ____ . ____ . ____ . ____ . _
 72
65
 73
4
 40
30.0
 49
24.0
 74
0
 49
-2.9500000000000002
 74
0
 49
0.1
 74
0
 49
-2.9500000000000002
 74
0
  0
LTYPE
  5
4A
100
AcDbSymbolTableRecord
100
AcDbLinetypeTableRecord
  2
BORDER
 70
0
  3
Border __ __ . __ __ . __ __ . __ __ . __ __ .
 72
65
 73
6
 40
44.449999999999996
 49
12.699999999999999
 74
0
 49
-6.3499999999999996
 74
0
 49
12.699999999999999
 74
0
 49
-6.2999999999999998
 74
0
 49
0.1
 74
0
 49
-6.2999999999999998
 74
0
  0
LTYPE
  5
4B
100
AcDbSymbolTableRecord
100
AcDbLinetypeTableRecord
  2
DASHED2
 70
0
  3
Dashed (.5x) _ _ _ _ _ _ _ _ _ _ _ _ _ _ _ _ _ 
 72
65
 73
2
 40
9.5249999999999986
 49
6.3499999999999996
 74
0
 49
-3.1749999999999998
 74
0
  0
LTYPE
  5
4C
100
AcDbSymbolTableRecord
100
AcDbLinetypeTableRecord
  2
DASHED
 70
0
  3
Dashed __ __ __ __ __ __ __ __ __ __ __ __ __ _
 72
65
 73
2
 40
19.049999999999997
 49
12.699999999999999
 74
0
 49
-6.3499999999999996
 74
0
  0
LTYPE
  5
4D
100
AcDbSymbolTableRecord
100
AcDbLinetypeTableRecord
  2
BORDERX2
 70
0
  3
Border (2x) ____  ____  .  ____  ____  .  ___
 72
65
 73
6
 40
88.899999999999977
 49
25.399999999999999
 74
0
 49
-12.699999999999999
 74
0
 49
25.399999999999999
 74
0
 49
-12.649999999999999
 74
0
 49
0.1
 74
0
 49
-12.649999999999999
 74
0
  0
LTYPE
  5
4E
100
AcDbSymbolTableRecord
100
AcDbLinetypeTableRecord
  2
DASHEDX2
 70
0
  3
Dashed (2x) ____  ____  ____  ____  ____  ___
 72
65
 73
2
 40
38.099999999999994
 49
25.399999999999999
 74
0
 49
-12.699999999999999
 74
0
  0
LTYPE
  5
4F
100
AcDbSymbolTableRecord
100
AcDbLinetypeTableRecord
  2
DASHDOT
 70
0
  3
Dash dot __ . __ . __ . __ . __ . __ . __ . __
 72
65
 73
4
 40
25.400000000000002
 49
12.699999999999999
 74
0
 49
-6.2999999999999998
 74
0
 49
0.1
 74
0
 49
-6.2999999999999998
 74
0
  0
LTYPE
  5
50
100
AcDbSymbolTableRecord
100
AcDbLinetypeTableRecord
  2
HIDDENX2
 70
0
  3
Hidden (2x) ____ ____ ____ ____ ____ ____ ____ 
 72
65
 73
2
 40
19.049999999999997
 49
12.699999999999999
 74
0
 49
-6.3499999999999996
 74
0
  0
LTYPE
  5
51
100
AcDbSymbolTableRecord
100
AcDbLinetypeTableRecord
  2
ACAD_ISO15W100
 70
0
  3
ISO double-dash triple-dot __ __ . . . __ __ . .
 72
65
 73
10
 40
39.000000000000007
 49
12.0
 74
0
 49
-3.0
 74
0
 49
12.0
 74
0
 49
-2.9500000000000002
 74
0
 49
0.1
 74
0
 49
-2.9000000000000004
 74
0
 49
0.1
 74
0
 49
-2.9000000000000004
 74
0
 49
0.1
 74
0
 49
-2.9500000000000002
 74
0
  0
LTYPE
  5
52
100
AcDbSymbolTableRecord
100
AcDbLinetypeTableRecord
  2
BORDER2
 70
0
  3
Border (.5x) __.__.__.__.__.__.__.__.__.__.__.
 72
65
 73
6
 40
22.225000000000001
 49
6.3499999999999996
 74
0
 49
-3.1749999999999998
 74
0
 49
6.3499999999999996
 74
0
 49
-3.125
 74
0
 49
0.1
 74
0
 49
-3.125
 74
0
  0
LTYPE
  5
53
100
AcDbSymbolTableRecord
100
AcDbLinetypeTableRecord
  2
ACAD_ISO10W100
 70
0
  3
ISO dash dot __ . __ . __ . __ . __ . __ . __ . 
 72
65
 73
4
 40
18.0
 49
12.0
 74
0
 49
-2.9500000000000002
 74
0
 49
0.1
 74
0
 49
-2.9500000000000002
 74
0
  0
LTYPE
  5
54
100
AcDbSymbolTableRecord
100
AcDbLinetypeTableRecord
  2
CENTER2
 70
0
  3
Center (.5x) ___ _ ___ _ ___ _ ___ _ ___ _ ___
 72
65
 73
4
 40
28.575000000000003
 49
19.050000000000001
 74
0
 49
-3.1749999999999998
 74
0
 49
3.1749999999999998
 74
0
 49
-3.1749999999999998
 74
0
  0
LTYPE
  5
55
100
AcDbSymbolTableRecord
100
AcDbLinetypeTableRecord
  2
HIDDEN2
 70
0
  3
Hidden (.5x) _ _ _ _ _ _ _ _ _ _ _ _ _ _ _ _ _ 
 72
65
 73
2
 40
4.7624999999999993
 49
3.1749999999999998
 74
0
 49
-1.5874999999999999
 74
0
  0
LTYPE
  5
56
100
AcDbSymbolTableRecord
100
AcDbLinetypeTableRecord
  2
HIDDEN
 70
0
  3
Hidden __ __ __ __ __ __ __ __ __ __ __ __ __ __
 72
65
 73
2
 40
9.5249999999999986
 49
6.3499999999999996
 74
0
 49
-3.1749999999999998
 74
0
  0
ENDTAB
  0
TABLE
  2
LAYER
  5
2
100
AcDbSymbolTable
 70
2
  0
LAYER
  5
57
100
AcDbSymbolTableRecord
100
AcDbLayerTableRecord
  2
Instructions
 70
0
 62
1
420
16711680
  6
Continuous
370
25
390
F
  0
LAYER
  5
10
100
AcDbSymbolTableRecord
100
AcDbLayerTableRecord
  2
0
 70
0
 62
7
420
16777215
  6
Continuous
370
25
390
F
  0
ENDTAB
  0
TABLE
  2
STYLE
  5
3
100
AcDbSymbolTable
 70
9
  0
STYLE
  5
58
100
AcDbSymbolTableRecord
100
AcDbTextStyleTableRecord
  2
Standard
 70
0
 40
0.0
 41
1.0
 50
0.0
 71
0
 42
2.5
  3

  4

1001
ACAD
1000
txt
1071
0
  0
STYLE
  5
59
100
AcDbSymbolTableRecord
100
AcDbTextStyleTableRecord
  2
textstyle0
 70
0
 40
0.0
 41
1.0
 50
0.0
 71
0
 42
24.0
  3

  4

1001
ACAD
1000
Source Code Pro
1071
0
  0
STYLE
  5
5A
100
AcDbSymbolTableRecord
100
AcDbTextStyleTableRecord
  2
textstyle1
 70
0
 40
0.0
 41
1.0
 50
0.0
 71
0
 42
10.0
  3

  4

1001
ACAD
1000
Source Code Pro
1071
0
  0
STYLE
  5
5B
100
AcDbSymbolTableRecord
100
AcDbTextStyleTableRecord
  2
textstyle2
 70
0
 40
0.0
 41
1.0
 50
0.0
 71
0
 42
10.0
  3

  4

1001
ACAD
1000
Source Code Pro
1071
0
  0
STYLE
  5
5C
100
AcDbSymbolTableRecord
100
AcDbTextStyleTableRecord
  2
textstyle3
 70
0
 40
0.0
 41
1.0
 50
0.0
 71
0
 42
24.0
  3

  4

1001
ACAD
1000
Source Code Pro
1071
0
  0
STYLE
  5
5D
100
AcDbSymbolTableRecord
100
AcDbTextStyleTableRecord
  2
textstyle4
 70
0
 40
0.0
 41
1.0
 50
0.0
 71
0
 42
24.0
  3

  4

1001
ACAD
1000
Source Code Pro
1071
0
  0
STYLE
  5
5E
100
AcDbSymbolTableRecord
100
AcDbTextStyleTableRecord
  2
textstyle5
 70
0
 40
0.0
 41
1.0
 50
0.0
 71
0
 42
10.0
  3

  4

1001
ACAD
1000
Source Code Pro
1071
0
  0
STYLE
  5
5F
100
AcDbSymbolTableRecord
100
AcDbTextStyleTableRecord
  2
textstyle6
 70
0
 40
0.0
 41
1.0
 50
0.0
 71
0
 42
10.0
  3

  4

1001
ACAD
1000
Source Code Pro
1071
0
  0
STYLE
  5
60
100
AcDbSymbolTableRecord
100
AcDbTextStyleTableRecord
  2
textstyle7
 70
0
 40
0.0
 41
1.0
 50
0.0
 71
0
 42
10.0
  3

  4

1001
ACAD
1000
Source Code Pro
1071
0
  0
ENDTAB
  0
TABLE
  2
VIEW
  5
6
100
AcDbSymbolTable
 70
0
  0
ENDTAB
  0
TABLE
  2
UCS
  5
7
100
AcDbSymbolTable
 70
0
  0
ENDTAB
  0
TABLE
  2
APPID
  5
9
100
AcDbSymbolTable
 70
1
  0
APPID
  5
12
100
AcDbSymbolTableRecord
100
AcDbRegAppTableRecord
  2
ACAD
 70
0
  0
APPID
  5
61
100
AcDbSymbolTableRecord
100
AcDbRegAppTableRecord
  2
QCAD
 70
0
  0
ENDTAB
  0
TABLE
  2
DIMSTYLE
  5
A
100
AcDbSymbolTable
 70
1
100
AcDbDimStyleTable
 71
0
  0
DIMSTYLE
105
27
100
AcDbSymbolTableRecord
100
AcDbDimStyleTableRecord
  2
Standard
 41
2.5
 42
0.625
 43
3.75
 44
1.25
 70
0
 73
0
 74
0
 77
1
 78
8
140
2.5
141
2.5
143
0.03937007874016
147
0.625
171
3
172
1
271
2
272
2
274
3
278
44
283
0
284
8
340
58
  0
ENDTAB
  0
TABLE
  2
BLOCK_RECORD
  5
1
100
AcDbSymbolTable
 70
1
  0
BLOCK_RECORD
  5
1F
100
AcDbSymbolTableRecord
100
AcDbBlockTableRecord
  2
*Model_Space
340
22
  0
BLOCK_RECORD
  5
1B
100
AcDbSymbolTableRecord
100
AcDbBlockTableRecord
  2
*Paper_Space
340
1E
  0
BLOCK_RECORD
  5
23
100
AcDbSymbolTableRecord
100
AcDbBlockTableRecord
  2
*Paper_Space0
340
26
  0
ENDTAB
  0
ENDSEC
  0
SECTION
  2
BLOCKS
  0
BLOCK
  5
20
100
AcDbEntity
  8
0
100
AcDbBlockBegin
  2
*Model_Space
 70
0
 10
0.0
 20
0.0
 30
0.0
  3
*Model_Space
  1

  0
ENDBLK
  5
21
100
AcDbEntity
  8
0
100
AcDbBlockEnd
  0
BLOCK
  5
1C
100
AcDbEntity
 67
1
  8
0
100
AcDbBlockBegin
  2
*Paper_Space
 70
0
 10
0.0
 20
0.0
 30
0.0
  3
*Paper_Space
  1

  0
ENDBLK
  5
1D
100
AcDbEntity
 67
1
  8
0
100
AcDbBlockEnd
  0
BLOCK
  5
24
100
AcDbEntity
  8
0
100
AcDbBlockBegin
  2
*Paper_Space0
 70
0
 10
0.0
 20
0.0
 30
0.0
  3
*Paper_Space0
  1

  0
ENDBLK
  5
25
100
AcDbEntity
  8
0
100
AcDbBlockEnd
  0
ENDSEC
  0
SECTION
  2
ENTITIES
  0
LINE
  5
62
100
AcDbEntity
  8
0
 62
256
370
-1
 48
1.0
  6
BYLAYER
100
AcDbLine
 10
140.0
 20
0.0
 30
0.0
 11
209.99999999999997
 21
0.0
 31
0.0
  0
LINE
  5
63
100
AcDbEntity
  8
0
 62
256
370
-1
 48
1.0
  6
BYLAYER
100
AcDbLine
 10
292.0
 20
0.0
 30
0.0
 11
362.0
 21
0.0
 31
0.0
  0
LINE
  5
64
100
AcDbEntity
  8
0
 62
256
370
-1
 48
1.0
  6
BYLAYER
100
AcDbLine
 10
438.0
 20
200.0
 30
0.0
 11
504.5
 21
200.0
 31
0.0
  0
CIRCLE
  5
65
100
AcDbEntity
  8
0
 62
256
370
-1
 48
1.0
  6
BYLAYER
100
AcDbCircle
 10
250.0
 20
440.0
 30
0.0
 40
12.5
  0
LINE
  5
66
100
AcDbEntity
  8
0
 62
256
370
-1
 48
1.0
  6
BYLAYER
100
AcDbLine
 10
444.0
 20
0.0
 30
0.0
 11
514.0
 21
0.0
 31
0.0
  0
LINE
  5
67
100
AcDbEntity
  8
0
 62
256
370
-1
 48
1.0
  6
BYLAYER
100
AcDbLine
 10
542.5
 20
238.0
 30
0.0
 11
542.5
 21
304.5
 31
0.0
  0
LINE
  5
68
100
AcDbEntity
  8
0
 62
256
370
-1
 48
1.0
  6
BYLAYER
100
AcDbLine
 10
596.0
 20
0.0
 30
0.0
 11
666.0
 21
0.0
 31
0.0
  0
LINE
  5
69
100
AcDbEntity
  8
0
 62
256
370
-1
 48
1.0
  6
BYLAYER
100
AcDbLine
 10
504.5
 20
342.5
 30
0.0
 11
438.0
 21
342.5
 31
0.0
  0
CIRCLE
  5
6A
100
AcDbEntity
  8
0
 62
256
370
-1
 48
1.0
  6
BYLAYER
100
AcDbCircle
 10
150.0
 20
440.0
 30
0.0
 40
33.0
  0
CIRCLE
  5
6B
100
AcDbEntity
  8
0
 62
256
370
-1
 48
1.0
  6
BYLAYER
100
AcDbCircle
 10
350.0
 20
440.0
 30
0.0
 40
33.0
  0
LINE
  5
6C
100
AcDbEntity
  8
0
 62
256
370
-1
 48
1.0
  6
BYLAYER
100
AcDbLine
 10
748.0
 20
0.0
 30
0.0
 11
818.0
 21
0.0
 31
0.0
  0
LINE
  5
6D
100
AcDbEntity
  8
0
 62
256
370
-1
 48
1.0
  6
BYLAYER
100
AcDbLine
 10
900.0
 20
0.0
 30
0.0
 11
970.0
 21
0.0
 31
0.0
  0
LINE
  5
6E
100
AcDbEntity
  8
0
 62
256
370
-1
 48
1.0
  6
BYLAYER
100
AcDbLine
 10
400.0
 20
304.5
 30
0.0
 11
400.0
 21
238.0
 31
0.0
  0
CIRCLE
  5
6F
100
AcDbEntity
  8
0
 62
256
370
-1
 48
1.0
  6
BYLAYER
100
AcDbCircle
 10
150.0
 20
440.0
 30
0.0
 40
12.5
  0
CIRCLE
  5
70
100
AcDbEntity
  8
0
 62
256
370
-1
 48
1.0
  6
BYLAYER
100
AcDbCircle
 10
350.0
 20
440.0
 30
0.0
 40
12.5
  0
LINE
  5
71
100
AcDbEntity
  8
0
 62
256
370
-1
 48
1.0
  6
BYLAYER
100
AcDbLine
 10
1052.0
 20
0.0
 30
0.0
 11
1122.0
 21
0.0
 31
0.0
  0
ARC
  5
72
100
AcDbEntity
  8
0
 62
256
370
-1
 48
1.0
  6
BYLAYER
100
AcDbCircle
 10
438.0
 20
304.5
 30
0.0
 40
38.0
100
AcDbArc
 50
90.0
 51
128.07272574955832
  0
LINE
  5
73
100
AcDbEntity
  8
0
 62
256
370
-1
 48
1.0
  6
BYLAYER
100
AcDbLine
 10
1204.0
 20
0.0
 30
0.0
 11
1274.0
 21
0.0
 31
0.0
  0
LINE
  5
74
100
AcDbEntity
  8
0
 62
256
370
-1
 48
1.0
  6
BYLAYER
100
AcDbLine
 10
40.0
 20
200.0
 30
0.0
 11
110.0
 21
200.0
 31
0.0
  0
ARC
  5
75
100
AcDbEntity
  8
0
 62
256
370
-1
 48
1.0
  6
BYLAYER
100
AcDbCircle
 10
438.0
 20
304.5
 30
0.0
 40
38.0
100
AcDbArc
 50
141.927274250442
 51
180.0
  0
LINE
  5
76
100
AcDbEntity
  8
0
 62
256
370
-1
 48
1.0
  6
BYLAYER
100
AcDbLine
 10
1356.0
 20
0.0
 30
0.0
 11
1426.0
 21
0.0
 31
0.0
  0
LINE
  5
77
100
AcDbEntity
  8
0
 62
256
370
-1
 48
1.0
  6
BYLAYER
100
AcDbLine
 10
192.0
 20
200.0
 30
0.0
 11
262.0
 21
200.0
 31
0.0
  0
ARC
  5
78
100
AcDbEntity
  8
0
 62
256
370
-1
 48
1.0
  6
BYLAYER
100
AcDbCircle
 10
504.5
 20
304.5
 30
0.0
 40
38.0
100
AcDbArc
 50
360.0
 51
38.072725749557975
  0
LINE
  5
79
100
AcDbEntity
  8
0
 62
256
370
-1
 48
1.0
  6
BYLAYER
100
AcDbLine
 10
250.0
 20
40.0
 30
0.0
 11
250.0
 21
110.0
 31
0.0
  0
ARC
  5
7A
100
AcDbEntity
  8
0
 62
256
370
-1
 48
1.0
  6
BYLAYER
100
AcDbCircle
 10
504.5
 20
304.5
 30
0.0
 40
38.0
100
AcDbArc
 50
51.92727425044172
 51
90.0
  0
LINE
  5
7B
100
AcDbEntity
  8
0
 62
256
370
-1
 48
1.0
  6
BYLAYER
100
AcDbLine
 10
402.0
 20
40.0
 30
0.0
 11
402.0
 21
110.0
 31
0.0
  0
LINE
  5
7C
100
AcDbEntity
  8
0
 62
256
370
-1
 48
1.0
  6
BYLAYER
100
AcDbLine
 10
554.0
 20
40.0
 30
0.0
 11
554.0
 21
110.0
 31
0.0
  0
ARC
  5
7D
100
AcDbEntity
  8
0
 62
256
370
-1
 48
1.0
  6
BYLAYER
100
AcDbCircle
 10
438.0
 20
238.0
 30
0.0
 40
38.0
100
AcDbArc
 50
180.0
 51
218.07272574955797
  0
LINE
  5
7E
100
AcDbEntity
  8
0
 62
256
370
-1
 48
1.0
  6
BYLAYER
100
AcDbLine
 10
706.0
 20
40.0
 30
0.0
 11
706.0
 21
110.0
 31
0.0
  0
ARC
  5
7F
100
AcDbEntity
  8
0
 62
256
370
-1
 48
1.0
  6
BYLAYER
100
AcDbCircle
 10
438.0
 20
238.0
 30
0.0
 40
38.0
100
AcDbArc
 50
231.92727425044168
 51
270.0
  0
LINE
  5
80
100
AcDbEntity
  8
0
 62
256
370
-1
 48
1.0
  6
BYLAYER
100
AcDbLine
 10
858.0
 20
40.0
 30
0.0
 11
858.0
 21
110.0
 31
0.0
  0
LINE
  5
81
100
AcDbEntity
  8
0
 62
256
370
-1
 48
1.0
  6
BYLAYER
100
AcDbLine
 10
1010.0
 20
40.0
 30
0.0
 11
1010.0
 21
110.0
 31
0.0
  0
ARC
  5
82
100
AcDbEntity
  8
0
 62
256
370
-1
 48
1.0
  6
BYLAYER
100
AcDbCircle
 10
504.5
 20
238.0
 30
0.0
 40
38.0
100
AcDbArc
 50
270.0
 51
308.07272574955829
  0
LINE
  5
83
100
AcDbEntity
  8
0
 62
256
370
-1
 48
1.0
  6
BYLAYER
100
AcDbLine
 10
1162.0
 20
40.0
 30
0.0
 11
1162.0
 21
110.0
 31
0.0
  0
ARC
  5
84
100
AcDbEntity
  8
0
 62
256
370
-1
 48
1.0
  6
BYLAYER
100
AcDbCircle
 10
504.5
 20
238.0
 30
0.0
 40
38.0
100
AcDbArc
 50
321.927274250442
 51
360.0
  0
LINE
  5
85
100
AcDbEntity
  8
0
 62
256
370
-1
 48
1.0
  6
BYLAYER
100
AcDbLine
 10
1314.0
 20
40.0
 30
0.0
 11
1314.0
 21
110.0
 31
0.0
  0
LINE
  5
86
100
AcDbEntity
  8
0
 62
256
370
-1
 48
1.0
  6
BYLAYER
100
AcDbLine
 10
150.0
 20
240.0
 30
0.0
 11
150.0
 21
310.0
 31
0.0
  0
LINE
  5
87
100
AcDbEntity
  8
0
 62
256
370
-1
 48
1.0
  6
BYLAYER
100
AcDbLine
 10
1466.0
 20
40.0
 30
0.0
 11
1466.0
 21
110.0
 31
0.0
  0
LINE
  5
88
100
AcDbEntity
  8
0
 62
256
370
-1
 48
1.0
  6
BYLAYER
100
AcDbLine
 10
302.0
 20
240.0
 30
0.0
 11
302.0
 21
310.0
 31
0.0
  0
LINE
  5
89
100
AcDbEntity
  8
0
 62
256
370
-1
 48
1.0
  6
BYLAYER
100
AcDbLine
 10
210.0
 20
150.0
 30
0.0
 11
140.0
 21
150.0
 31
0.0
  0
LINE
  5
8A
100
AcDbEntity
  8
0
 62
256
370
-1
 48
1.0
  6
BYLAYER
100
AcDbLine
 10
362.0
 20
150.0
 30
0.0
 11
292.0
 21
150.0
 31
0.0
  0
LINE
  5
8B
100
AcDbEntity
  8
0
 62
256
370
-1
 48
1.0
  6
BYLAYER
100
AcDbLine
 10
514.0
 20
150.0
 30
0.0
 11
444.0
 21
150.0
 31
0.0
  0
LINE
  5
8C
100
AcDbEntity
  8
0
 62
256
370
-1
 48
1.0
  6
BYLAYER
100
AcDbLine
 10
666.0
 20
150.0
 30
0.0
 11
596.0
 21
150.0
 31
0.0
  0
LINE
  5
8D
100
AcDbEntity
  8
0
 62
256
370
-1
 48
1.0
  6
BYLAYER
100
AcDbLine
 10
818.0
 20
150.0
 30
0.0
 11
748.0
 21
150.0
 31
0.0
  0
LINE
  5
8E
100
AcDbEntity
  8
0
 62
256
370
-1
 48
1.0
  6
BYLAYER
100
AcDbLine
 10
970.0
 20
150.0
 30
0.0
 11
900.0
 21
150.0
 31
0.0
  0
LINE
  5
8F
100
AcDbEntity
  8
0
 62
256
370
-1
 48
1.0
  6
BYLAYER
100
AcDbLine
 10
1122.0
 20
150.0
 30
0.0
 11
1052.0
 21
150.0
 31
0.0
  0
LINE
  5
90
100
AcDbEntity
  8
0
 62
256
370
-1
 48
1.0
  6
BYLAYER
100
AcDbLine
 10
1274.0
 20
150.0
 30
0.0
 11
1204.0
 21
150.0
 31
0.0
  0
LINE
  5
91
100
AcDbEntity
  8
0
 62
256
370
-1
 48
1.0
  6
BYLAYER
100
AcDbLine
 10
110.0
 20
350.0
 30
0.0
 11
40.0
 21
350.0
 31
0.0
  0
LINE
  5
92
100
AcDbEntity
  8
0
 62
256
370
-1
 48
1.0
  6
BYLAYER
100
AcDbLine
 10
262.0
 20
350.0
 30
0.0
 11
192.0
 21
350.0
 31
0.0
  0
LINE
  5
93
100
AcDbEntity
  8
0
 62
256
370
-1
 48
1.0
  6
BYLAYER
100
AcDbLine
 10
1426.0
 20
150.0
 30
0.0
 11
1394.0
 21
150.0
 31
0.0
  0
LINE
  5
94
100
AcDbEntity
  8
0
 62
256
370
-1
 48
1.0
  6
BYLAYER
100
AcDbLine
 10
1388.0
 20
150.0
 30
0.0
 11
1356.0
 21
150.0
 31
0.0
  0
LINE
  5
95
100
AcDbEntity
  8
0
 62
256
370
-1
 48
1.0
  6
BYLAYER
100
AcDbLine
 10
100.0
 20
110.0
 30
0.0
 11
100.0
 21
40.0
 31
0.0
  0
LINE
  5
96
100
AcDbEntity
  8
0
 62
256
370
-1
 48
1.0
  6
BYLAYER
100
AcDbLine
 10
252.0
 20
110.0
 30
0.0
 11
252.0
 21
40.0
 31
0.0
  0
LINE
  5
97
100
AcDbEntity
  8
0
 62
256
370
-1
 48
1.0
  6
BYLAYER
100
AcDbLine
 10
404.0
 20
110.0
 30
0.0
 11
404.0
 21
40.0
 31
0.0
  0
LINE
  5
98
100
AcDbEntity
  8
0
 62
256
370
-1
 48
1.0
  6
BYLAYER
100
AcDbLine
 10
556.0
 20
110.0
 30
0.0
 11
556.0
 21
40.0
 31
0.0
  0
LINE
  5
99
100
AcDbEntity
  8
0
 62
256
370
-1
 48
1.0
  6
BYLAYER
100
AcDbLine
 10
708.0
 20
110.0
 30
0.0
 11
708.0
 21
40.0
 31
0.0
  0
LINE
  5
9A
100
AcDbEntity
  8
0
 62
256
370
-1
 48
1.0
  6
BYLAYER
100
AcDbLine
 10
860.0
 20
110.0
 30
0.0
 11
860.0
 21
40.0
 31
0.0
  0
LINE
  5
9B
100
AcDbEntity
  8
0
 62
256
370
-1
 48
1.0
  6
BYLAYER
100
AcDbLine
 10
1012.0
 20
110.0
 30
0.0
 11
1012.0
 21
40.0
 31
0.0
  0
LINE
  5
9C
100
AcDbEntity
  8
0
 62
256
370
-1
 48
1.0
  6
BYLAYER
100
AcDbLine
 10
1164.0
 20
110.0
 30
0.0
 11
1164.0
 21
40.0
 31
0.0
  0
LINE
  5
9D
100
AcDbEntity
  8
0
 62
256
370
-1
 48
1.0
  6
BYLAYER
100
AcDbLine
 10
0.0
 20
310.0
 30
0.0
 11
0.0
 21
240.0
 31
0.0
  0
LINE
  5
9E
100
AcDbEntity
  8
0
 62
256
370
-1
 48
1.0
  6
BYLAYER
100
AcDbLine
 10
1316.0
 20
110.0
 30
0.0
 11
1316.0
 21
40.0
 31
0.0
  0
LINE
  5
9F
100
AcDbEntity
  8
0
 62
256
370
-1
 48
1.0
  6
BYLAYER
100
AcDbLine
 10
152.0
 20
310.0
 30
0.0
 11
152.0
 21
240.0
 31
0.0
  0
ARC
  5
A0
100
AcDbEntity
  8
0
 62
256
370
-1
 48
1.0
  6
BYLAYER
100
AcDbCircle
 10
527.89213562373106
 20
214.60786437626905
 30
0.0
 40
4.0
100
AcDbArc
 50
47.862257208007236
 51
222.13774279199191
  0
ARC
  5
A1
100
AcDbEntity
  8
0
 62
256
370
-1
 48
1.0
  6
BYLAYER
100
AcDbCircle
 10
140.0
 20
110.0
 30
0.0
 40
40.0
100
AcDbArc
 50
90.0
 51
180.0
  0
ARC
  5
A2
100
AcDbEntity
  8
0
 62
256
370
-1
 48
1.0
  6
BYLAYER
100
AcDbCircle
 10
527.89213562373106
 20
327.89213562373095
 30
0.0
 40
4.0
100
AcDbArc
 50
137.86225720800726
 51
312.13774279199436
  0
ARC
  5
A3
100
AcDbEntity
  8
0
 62
256
370
-1
 48
1.0
  6
BYLAYER
100
AcDbCircle
 10
292.0
 20
110.0
 30
0.0
 40
40.0
100
AcDbArc
 50
90.0
 51
180.0
  0
ARC
  5
A4
100
AcDbEntity
  8
0
 62
256
370
-1
 48
1.0
  6
BYLAYER
100
AcDbCircle
 10
414.60786437626894
 20
214.60786437626905
 30
0.0
 40
4.0
100
AcDbArc
 50
317.86225720800809
 51
132.13774279199279
  0
ARC
  5
A5
100
AcDbEntity
  8
0
 62
256
370
-1
 48
1.0
  6
BYLAYER
100
AcDbCircle
 10
444.0
 20
110.0
 30
0.0
 40
40.0
100
AcDbArc
 50
90.0
 51
180.0
  0
ARC
  5
A6
100
AcDbEntity
  8
0
 62
256
370
-1
 48
1.0
  6
BYLAYER
100
AcDbCircle
 10
414.60786437626894
 20
327.89213562373095
 30
0.0
 40
4.0
100
AcDbArc
 50
227.86225720802452
 51
42.137742791989453
  0
ARC
  5
A7
100
AcDbEntity
  8
0
 62
256
370
-1
 48
1.0
  6
BYLAYER
100
AcDbCircle
 10
596.0
 20
110.0
 30
0.0
 40
40.0
100
AcDbArc
 50
90.0
 51
180.0
  0
LINE
  5
A8
100
AcDbEntity
  8
0
 62
256
370
-1
 48
1.0
  6
BYLAYER
100
AcDbLine
 10
417.57400055979554
 20
211.92420341765782
 30
0.0
 11
414.56687424305977
 21
208.08531101182189
 31
0.0
  0
ARC
  5
A9
100
AcDbEntity
  8
0
 62
256
370
-1
 48
1.0
  6
BYLAYER
100
AcDbCircle
 10
748.0
 20
110.0
 30
0.0
 40
40.0
100
AcDbArc
 50
90.0
 51
180.0
  0
LINE
  5
AA
100
AcDbEntity
  8
0
 62
256
370
-1
 48
1.0
  6
BYLAYER
100
AcDbLine
 10
417.57400055979554
 20
330.57579658234221
 30
0.0
 11
414.56687424305977
 21
334.41468898817811
 31
0.0
  0
ARC
  5
AB
100
AcDbEntity
  8
0
 62
256
370
-1
 48
1.0
  6
BYLAYER
100
AcDbCircle
 10
900.0
 20
110.0
 30
0.0
 40
40.0
100
AcDbArc
 50
90.0
 51
180.0
  0
LINE
  5
AC
100
AcDbEntity
  8
0
 62
256
370
-1
 48
1.0
  6
BYLAYER
100
AcDbLine
 10
411.92420341765774
 20
217.57400055979565
 30
0.0
 11
408.08531101182177
 21
214.56687424305991
 31
0.0
  0
ARC
  5
AD
100
AcDbEntity
  8
0
 62
256
370
-1
 48
1.0
  6
BYLAYER
100
AcDbCircle
 10
1052.0
 20
110.0
 30
0.0
 40
40.0
100
AcDbArc
 50
90.0
 51
180.0
  0
LINE
  5
AE
100
AcDbEntity
  8
0
 62
256
370
-1
 48
1.0
  6
BYLAYER
100
AcDbLine
 10
411.92420341765768
 20
324.92599944020424
 30
0.0
 11
408.08531101182177
 21
327.93312575694011
 31
0.0
  0
ARC
  5
AF
100
AcDbEntity
  8
0
 62
256
370
-1
 48
1.0
  6
BYLAYER
100
AcDbCircle
 10
1204.0
 20
110.0
 30
0.0
 40
40.0
100
AcDbArc
 50
90.0
 51
180.0
  0
ARC
  5
B0
100
AcDbEntity
  8
0
 62
256
370
-1
 48
1.0
  6
BYLAYER
100
AcDbCircle
 10
40.0
 20
310.0
 30
0.0
 40
40.0
100
AcDbArc
 50
90.0
 51
180.0
  0
LINE
  5
B1
100
AcDbEntity
  8
0
 62
256
370
-1
 48
1.0
  6
BYLAYER
100
AcDbLine
 10
530.57579658234226
 20
217.57400055979565
 30
0.0
 11
534.41468898817823
 21
214.56687424305991
 31
0.0
  0
ARC
  5
B2
100
AcDbEntity
  8
0
 62
256
370
-1
 48
1.0
  6
BYLAYER
100
AcDbCircle
 10
1356.0
 20
110.0
 30
0.0
 40
40.0
100
AcDbArc
 50
90.0
 51
180.0
  0
LINE
  5
B3
100
AcDbEntity
  8
0
 62
256
370
-1
 48
1.0
  6
BYLAYER
100
AcDbLine
 10
530.57579658234226
 20
324.92599944020435
 30
0.0
 11
534.41468898817823
 21
327.93312575694006
 31
0.0
  0
ARC
  5
B4
100
AcDbEntity
  8
0
 62
256
370
-1
 48
1.0
  6
BYLAYER
100
AcDbCircle
 10
192.0
 20
310.0
 30
0.0
 40
40.0
100
AcDbArc
 50
90.0
 51
180.0
  0
LINE
  5
B5
100
AcDbEntity
  8
0
 62
256
370
-1
 48
1.0
  6
BYLAYER
100
AcDbLine
 10
524.92599944020446
 20
211.92420341765782
 30
0.0
 11
527.93312575694017
 21
208.08531101182189
 31
0.0
  0
ARC
  5
B6
100
AcDbEntity
  8
0
 62
256
370
-1
 48
1.0
  6
BYLAYER
100
AcDbCircle
 10
210.0
 20
110.0
 30
0.0
 40
40.0
100
AcDbArc
 50
360.0
 51
90.0
  0
LINE
  5
B7
100
AcDbEntity
  8
0
 62
256
370
-1
 48
1.0
  6
BYLAYER
100
AcDbLine
 10
524.92599944020446
 20
330.57579658234221
 30
0.0
 11
527.93312575694017
 21
334.41468898817811
 31
0.0
  0
ARC
  5
B8
100
AcDbEntity
  8
0
 62
256
370
-1
 48
1.0
  6
BYLAYER
100
AcDbCircle
 10
362.0
 20
110.0
 30
0.0
 40
40.0
100
AcDbArc
 50
360.0
 51
90.0
  0
ARC
  5
B9
100
AcDbEntity
  8
0
 62
256
370
-1
 48
1.0
  6
BYLAYER
100
AcDbCircle
 10
514.0
 20
110.0
 30
0.0
 40
40.0
100
AcDbArc
 50
360.0
 51
90.0
  0
ARC
  5
BA
100
AcDbEntity
  8
0
 62
256
370
-1
 48
1.0
  6
BYLAYER
100
AcDbCircle
 10
666.0
 20
110.0
 30
0.0
 40
40.0
100
AcDbArc
 50
360.0
 51
90.0
  0
ARC
  5
BB
100
AcDbEntity
  8
0
 62
256
370
-1
 48
1.0
  6
BYLAYER
100
AcDbCircle
 10
818.0
 20
110.0
 30
0.0
 40
40.0
100
AcDbArc
 50
360.0
 51
90.0
  0
ARC
  5
BC
100
AcDbEntity
  8
0
 62
256
370
-1
 48
1.0
  6
BYLAYER
100
AcDbCircle
 10
970.0
 20
110.0
 30
0.0
 40
40.0
100
AcDbArc
 50
360.0
 51
90.0
  0
ARC
  5
BD
100
AcDbEntity
  8
0
 62
256
370
-1
 48
1.0
  6
BYLAYER
100
AcDbCircle
 10
1122.0
 20
110.0
 30
0.0
 40
40.0
100
AcDbArc
 50
360.0
 51
90.0
  0
ARC
  5
BE
100
AcDbEntity
  8
0
 62
256
370
-1
 48
1.0
  6
BYLAYER
100
AcDbCircle
 10
1274.0
 20
110.0
 30
0.0
 40
40.0
100
AcDbArc
 50
360.0
 51
90.0
  0
ARC
  5
BF
100
AcDbEntity
  8
0
 62
256
370
-1
 48
1.0
  6
BYLAYER
100
AcDbCircle
 10
110.0
 20
310.0
 30
0.0
 40
40.0
100
AcDbArc
 50
360.0
 51
90.0
  0
ARC
  5
C0
100
AcDbEntity
  8
0
 62
256
370
-1
 48
1.0
  6
BYLAYER
100
AcDbCircle
 10
1426.0
 20
110.0
 30
0.0
 40
40.0
100
AcDbArc
 50
360.0
 51
90.0
  0
ARC
  5
C1
100
AcDbEntity
  8
0
 62
256
370
-1
 48
1.0
  6
BYLAYER
100
AcDbCircle
 10
262.0
 20
310.0
 30
0.0
 40
40.0
100
AcDbArc
 50
360.0
 51
90.0
  0
ARC
  5
C2
100
AcDbEntity
  8
0
 62
256
370
-1
 48
1.0
  6
BYLAYER
100
AcDbCircle
 10
140.0
 20
40.0
 30
0.0
 40
40.0
100
AcDbArc
 50
180.0
 51
270.0
  0
ARC
  5
C3
100
AcDbEntity
  8
0
 62
256
370
-1
 48
1.0
  6
BYLAYER
100
AcDbCircle
 10
292.0
 20
40.0
 30
0.0
 40
40.0
100
AcDbArc
 50
180.0
 51
270.0
  0
ARC
  5
C4
100
AcDbEntity
  8
0
 62
256
370
-1
 48
1.0
  6
BYLAYER
100
AcDbCircle
 10
444.0
 20
40.0
 30
0.0
 40
40.0
100
AcDbArc
 50
180.0
 51
270.0
  0
ARC
  5
C5
100
AcDbEntity
  8
0
 62
256
370
-1
 48
1.0
  6
BYLAYER
100
AcDbCircle
 10
596.0
 20
40.0
 30
0.0
 40
40.0
100
AcDbArc
 50
180.0
 51
270.0
  0
ARC
  5
C6
100
AcDbEntity
  8
0
 62
256
370
-1
 48
1.0
  6
BYLAYER
100
AcDbCircle
 10
748.0
 20
40.0
 30
0.0
 40
40.0
100
AcDbArc
 50
180.0
 51
270.0
  0
ARC
  5
C7
100
AcDbEntity
  8
0
 62
256
370
-1
 48
1.0
  6
BYLAYER
100
AcDbCircle
 10
900.0
 20
40.0
 30
0.0
 40
40.0
100
AcDbArc
 50
180.0
 51
270.0
  0
ARC
  5
C8
100
AcDbEntity
  8
0
 62
256
370
-1
 48
1.0
  6
BYLAYER
100
AcDbCircle
 10
1052.0
 20
40.0
 30
0.0
 40
40.0
100
AcDbArc
 50
180.0
 51
270.0
  0
ARC
  5
C9
100
AcDbEntity
  8
0
 62
256
370
-1
 48
1.0
  6
BYLAYER
100
AcDbCircle
 10
1204.0
 20
40.0
 30
0.0
 40
40.0
100
AcDbArc
 50
180.0
 51
270.0
  0
ARC
  5
CA
100
AcDbEntity
  8
0
 62
256
370
-1
 48
1.0
  6
BYLAYER
100
AcDbCircle
 10
40.0
 20
240.0
 30
0.0
 40
40.0
100
AcDbArc
 50
180.0
 51
270.0
  0
ARC
  5
CB
100
AcDbEntity
  8
0
 62
256
370
-1
 48
1.0
  6
BYLAYER
100
AcDbCircle
 10
1356.0
 20
40.0
 30
0.0
 40
40.0
100
AcDbArc
 50
180.0
 51
270.0
  0
ARC
  5
CC
100
AcDbEntity
  8
0
 62
256
370
-1
 48
1.0
  6
BYLAYER
100
AcDbCircle
 10
192.0
 20
240.0
 30
0.0
 40
40.0
100
AcDbArc
 50
180.0
 51
270.0
  0
ARC
  5
CD
100
AcDbEntity
  8
0
 62
256
370
-1
 48
1.0
  6
BYLAYER
100
AcDbCircle
 10
210.0
 20
40.0
 30
0.0
 40
40.0
100
AcDbArc
 50
270.0
 51
360.0
  0
ARC
  5
CE
100
AcDbEntity
  8
0
 62
256
370
-1
 48
1.0
  6
BYLAYER
100
AcDbCircle
 10
362.0
 20
40.0
 30
0.0
 40
40.0
100
AcDbArc
 50
270.0
 51
360.0
  0
ARC
  5
CF
100
AcDbEntity
  8
0
 62
256
370
-1
 48
1.0
  6
BYLAYER
100
AcDbCircle
 10
514.0
 20
40.0
 30
0.0
 40
40.0
100
AcDbArc
 50
270.0
 51
360.0
  0
ARC
  5
D0
100
AcDbEntity
  8
0
 62
256
370
-1
 48
1.0
  6
BYLAYER
100
AcDbCircle
 10
666.0
 20
40.0
 30
0.0
 40
40.0
100
AcDbArc
 50
270.0
 51
360.0
  0
ARC
  5
D1
100
AcDbEntity
  8
0
 62
256
370
-1
 48
1.0
  6
BYLAYER
100
AcDbCircle
 10
818.0
 20
40.0
 30
0.0
 40
40.0
100
AcDbArc
 50
270.0
 51
360.0
  0
ARC
  5
D2
100
AcDbEntity
  8
0
 62
256
370
-1
 48
1.0
  6
BYLAYER
100
AcDbCircle
 10
970.0
 20
40.0
 30
0.0
 40
40.0
100
AcDbArc
 50
270.0
 51
360.0
  0
ARC
  5
D3
100
AcDbEntity
  8
0
 62
256
370
-1
 48
1.0
  6
BYLAYER
100
AcDbCircle
 10
1122.0
 20
40.0
 30
0.0
 40
40.0
100
AcDbArc
 50
270.0
 51
360.0
  0
ARC
  5
D4
100
AcDbEntity
  8
0
 62
256
370
-1
 48
1.0
  6
BYLAYER
100
AcDbCircle
 10
1274.0
 20
40.0
 30
0.0
 40
40.0
100
AcDbArc
 50
270.0
 51
360.0
  0
ARC
  5
D5
100
AcDbEntity
  8
0
 62
256
370
-1
 48
1.0
  6
BYLAYER
100
AcDbCircle
 10
110.0
 20
240.0
 30
0.0
 40
40.0
100
AcDbArc
 50
270.0
 51
360.0
  0
ARC
  5
D6
100
AcDbEntity
  8
0
 62
256
370
-1
 48
1.0
  6
BYLAYER
100
AcDbCircle
 10
1426.0
 20
40.0
 30
0.0
 40
40.0
100
AcDbArc
 50
270.0
 51
360.0
  0
ARC
  5
D7
100
AcDbEntity
  8
0
 62
256
370
-1
 48
1.0
  6
BYLAYER
100
AcDbCircle
 10
262.0
 20
240.0
 30
0.0
 40
40.0
100
AcDbArc
 50
270.0
 51
360.0
  0
CIRCLE
  5
D8
100
AcDbEntity
  8
0
 62
256
370
-1
 48
1.0
  6
BYLAYER
100
AcDbCircle
 10
175.0
 20
75.0
 30
0.0
 40
35.0
  0
CIRCLE
  5
D9
100
AcDbEntity
  8
0
 62
256
370
-1
 48
1.0
  6
BYLAYER
100
AcDbCircle
 10
250.0
 20
440.0
 30
0.0
 40
35.0
  0
LINE
  5
DA
100
AcDbEntity
  8
0
 62
256
370
-1
 48
1.0
  6
BYLAYER
100
AcDbLine
 10
262.0
 20
40.0
 30
0.0
 11
292.0
 21
10.0
 31
0.0
  0
LINE
  5
DB
100
AcDbEntity
  8
0
 62
256
370
-1
 48
1.0
  6
BYLAYER
100
AcDbLine
 10
414.0
 20
40.0
 30
0.0
 11
444.0
 21
10.0
 31
0.0
  0
LINE
  5
DC
100
AcDbEntity
  8
0
 62
256
370
-1
 48
1.0
  6
BYLAYER
100
AcDbLine
 10
718.0
 20
40.0
 30
0.0
 11
748.0
 21
10.0
 31
0.0
  0
LINE
  5
DD
100
AcDbEntity
  8
0
 62
256
370
-1
 48
1.0
  6
BYLAYER
100
AcDbLine
 10
870.0
 20
40.0
 30
0.0
 11
900.0
 21
10.0
 31
0.0
  0
LINE
  5
DE
100
AcDbEntity
  8
0
 62
256
370
-1
 48
1.0
  6
BYLAYER
100
AcDbLine
 10
1022.0
 20
40.0
 30
0.0
 11
1052.0
 21
10.0
 31
0.0
  0
LINE
  5
DF
100
AcDbEntity
  8
0
 62
256
370
-1
 48
1.0
  6
BYLAYER
100
AcDbLine
 10
1174.0
 20
40.0
 30
0.0
 11
1204.0
 21
10.0
 31
0.0
  0
LINE
  5
E0
100
AcDbEntity
  8
0
 62
256
370
-1
 48
1.0
  6
BYLAYER
100
AcDbLine
 10
10.0
 20
240.0
 30
0.0
 11
40.0
 21
210.0
 31
0.0
  0
LINE
  5
E1
100
AcDbEntity
  8
0
 62
256
370
-1
 48
1.0
  6
BYLAYER
100
AcDbLine
 10
1326.0
 20
40.0
 30
0.0
 11
1356.0
 21
10.0
 31
0.0
  0
LINE
  5
E2
100
AcDbEntity
  8
0
 62
256
370
-1
 48
1.0
  6
BYLAYER
100
AcDbLine
 10
292.0
 20
10.0
 30
0.0
 11
362.0
 21
10.0
 31
0.0
  0
LINE
  5
E3
100
AcDbEntity
  8
0
 62
256
370
-1
 48
1.0
  6
BYLAYER
100
AcDbLine
 10
444.0
 20
10.0
 30
0.0
 11
514.0
 21
10.0
 31
0.0
  0
LINE
  5
E4
100
AcDbEntity
  8
0
 62
256
370
-1
 48
1.0
  6
BYLAYER
100
AcDbLine
 10
748.0
 20
10.0
 30
0.0
 11
818.0
 21
10.0
 31
0.0
  0
LINE
  5
E5
100
AcDbEntity
  8
0
 62
256
370
-1
 48
1.0
  6
BYLAYER
100
AcDbLine
 10
900.0
 20
10.0
 30
0.0
 11
970.0
 21
10.0
 31
0.0
  0
LINE
  5
E6
100
AcDbEntity
  8
0
 62
256
370
-1
 48
1.0
  6
BYLAYER
100
AcDbLine
 10
1052.0
 20
10.0
 30
0.0
 11
1122.0
 21
10.0
 31
0.0
  0
LINE
  5
E7
100
AcDbEntity
  8
0
 62
256
370
-1
 48
1.0
  6
BYLAYER
100
AcDbLine
 10
1204.0
 20
10.0
 30
0.0
 11
1274.0
 21
10.0
 31
0.0
  0
LINE
  5
E8
100
AcDbEntity
  8
0
 62
256
370
-1
 48
1.0
  6
BYLAYER
100
AcDbLine
 10
40.0
 20
210.0
 30
0.0
 11
110.0
 21
210.0
 31
0.0
  0
LINE
  5
E9
100
AcDbEntity
  8
0
 62
256
370
-1
 48
1.0
  6
BYLAYER
100
AcDbLine
 10
1356.0
 20
10.0
 30
0.0
 11
1426.0
 21
10.0
 31
0.0
  0
LINE
  5
EA
100
AcDbEntity
  8
0
 62
256
370
-1
 48
1.0
  6
BYLAYER
100
AcDbLine
 10
362.0
 20
10.0
 30
0.0
 11
392.0
 21
40.0
 31
0.0
  0
LINE
  5
EB
100
AcDbEntity
  8
0
 62
256
370
-1
 48
1.0
  6
BYLAYER
100
AcDbLine
 10
514.0
 20
10.0
 30
0.0
 11
544.0
 21
40.0
 31
0.0
  0
LINE
  5
EC
100
AcDbEntity
  8
0
 62
256
370
-1
 48
1.0
  6
BYLAYER
100
AcDbLine
 10
818.0
 20
10.0
 30
0.0
 11
848.0
 21
40.0
 31
0.0
  0
LINE
  5
ED
100
AcDbEntity
  8
0
 62
256
370
-1
 48
1.0
  6
BYLAYER
100
AcDbLine
 10
970.0
 20
10.0
 30
0.0
 11
1000.0
 21
40.0
 31
0.0
  0
LINE
  5
EE
100
AcDbEntity
  8
0
 62
256
370
-1
 48
1.0
  6
BYLAYER
100
AcDbLine
 10
1122.0
 20
10.0
 30
0.0
 11
1152.0
 21
40.0
 31
0.0
  0
LINE
  5
EF
100
AcDbEntity
  8
0
 62
256
370
-1
 48
1.0
  6
BYLAYER
100
AcDbLine
 10
1274.0
 20
10.0
 30
0.0
 11
1304.0
 21
40.0
 31
0.0
  0
LINE
  5
F0
100
AcDbEntity
  8
0
 62
256
370
-1
 48
1.0
  6
BYLAYER
100
AcDbLine
 10
110.0
 20
210.0
 30
0.0
 11
140.0
 21
240.0
 31
0.0
  0
LINE
  5
F1
100
AcDbEntity
  8
0
 62
256
370
-1
 48
1.0
  6
BYLAYER
100
AcDbLine
 10
1426.0
 20
10.0
 30
0.0
 11
1456.0
 21
40.0
 31
0.0
  0
LINE
  5
F2
100
AcDbEntity
  8
0
 62
256
370
-1
 48
1.0
  6
BYLAYER
100
AcDbLine
 10
392.0
 20
40.0
 30
0.0
 11
392.0
 21
110.0
 31
0.0
  0
LINE
  5
F3
100
AcDbEntity
  8
0
 62
256
370
-1
 48
1.0
  6
BYLAYER
100
AcDbLine
 10
544.0
 20
40.0
 30
0.0
 11
544.0
 21
110.0
 31
0.0
  0
LINE
  5
F4
100
AcDbEntity
  8
0
 62
256
370
-1
 48
1.0
  6
BYLAYER
100
AcDbLine
 10
848.0
 20
40.0
 30
0.0
 11
848.0
 21
110.0
 31
0.0
  0
LINE
  5
F5
100
AcDbEntity
  8
0
 62
256
370
-1
 48
1.0
  6
BYLAYER
100
AcDbLine
 10
1000.0
 20
40.0
 30
0.0
 11
1000.0
 21
110.0
 31
0.0
  0
LINE
  5
F6
100
AcDbEntity
  8
0
 62
256
370
-1
 48
1.0
  6
BYLAYER
100
AcDbLine
 10
1152.0
 20
40.0
 30
0.0
 11
1152.0
 21
110.0
 31
0.0
  0
LINE
  5
F7
100
AcDbEntity
  8
0
 62
256
370
-1
 48
1.0
  6
BYLAYER
100
AcDbLine
 10
1304.0
 20
40.0
 30
0.0
 11
1304.0
 21
110.0
 31
0.0
  0
LINE
  5
F8
100
AcDbEntity
  8
0
 62
256
370
-1
 48
1.0
  6
BYLAYER
100
AcDbLine
 10
140.0
 20
240.0
 30
0.0
 11
140.0
 21
310.0
 31
0.0
  0
LINE
  5
F9
100
AcDbEntity
  8
0
 62
256
370
-1
 48
1.0
  6
BYLAYER
100
AcDbLine
 10
1456.0
 20
40.0
 30
0.0
 11
1456.0
 21
110.0
 31
0.0
  0
LINE
  5
FA
100
AcDbEntity
  8
0
 62
256
370
-1
 48
1.0
  6
BYLAYER
100
AcDbLine
 10
392.0
 20
110.0
 30
0.0
 11
362.0
 21
140.0
 31
0.0
  0
LINE
  5
FB
100
AcDbEntity
  8
0
 62
256
370
-1
 48
1.0
  6
BYLAYER
100
AcDbLine
 10
544.0
 20
110.0
 30
0.0
 11
514.0
 21
140.0
 31
0.0
  0
LINE
  5
FC
100
AcDbEntity
  8
0
 62
256
370
-1
 48
1.0
  6
BYLAYER
100
AcDbLine
 10
848.0
 20
110.0
 30
0.0
 11
818.0
 21
140.0
 31
0.0
  0
LINE
  5
FD
100
AcDbEntity
  8
0
 62
256
370
-1
 48
1.0
  6
BYLAYER
100
AcDbLine
 10
1000.0
 20
110.0
 30
0.0
 11
970.0
 21
140.0
 31
0.0
  0
LINE
  5
FE
100
AcDbEntity
  8
0
 62
256
370
-1
 48
1.0
  6
BYLAYER
100
AcDbLine
 10
1152.0
 20
110.0
 30
0.0
 11
1122.0
 21
140.0
 31
0.0
  0
LINE
  5
FF
100
AcDbEntity
  8
0
 62
256
370
-1
 48
1.0
  6
BYLAYER
100
AcDbLine
 10
1304.0
 20
110.0
 30
0.0
 11
1274.0
 21
140.0
 31
0.0
  0
LINE
  5
100
100
AcDbEntity
  8
0
 62
256
370
-1
 48
1.0
  6
BYLAYER
100
AcDbLine
 10
140.0
 20
310.0
 30
0.0
 11
110.0
 21
340.0
 31
0.0
  0
LINE
  5
101
100
AcDbEntity
  8
0
 62
256
370
-1
 48
1.0
  6
BYLAYER
100
AcDbLine
 10
1456.0
 20
110.0
 30
0.0
 11
1426.0
 21
140.0
 31
0.0
  0
LINE
  5
102
100
AcDbEntity
  8
0
 62
256
370
-1
 48
1.0
  6
BYLAYER
100
AcDbLine
 10
362.0
 20
140.0
 30
0.0
 11
292.0
 21
140.0
 31
0.0
  0
LINE
  5
103
100
AcDbEntity
  8
0
 62
256
370
-1
 48
1.0
  6
BYLAYER
100
AcDbLine
 10
514.0
 20
140.0
 30
0.0
 11
444.0
 21
140.0
 31
0.0
  0
LINE
  5
104
100
AcDbEntity
  8
0
 62
256
370
-1
 48
1.0
  6
BYLAYER
100
AcDbLine
 10
818.0
 20
140.0
 30
0.0
 11
748.0
 21
140.0
 31
0.0
  0
LINE
  5
105
100
AcDbEntity
  8
0
 62
256
370
-1
 48
1.0
  6
BYLAYER
100
AcDbLine
 10
970.0
 20
140.0
 30
0.0
 11
900.0
 21
140.0
 31
0.0
  0
LINE
  5
106
100
AcDbEntity
  8
0
 62
256
370
-1
 48
1.0
  6
BYLAYER
100
AcDbLine
 10
1122.0
 20
140.0
 30
0.0
 11
1052.0
 21
140.0
 31
0.0
  0
LINE
  5
107
100
AcDbEntity
  8
0
 62
256
370
-1
 48
1.0
  6
BYLAYER
100
AcDbLine
 10
1274.0
 20
140.0
 30
0.0
 11
1204.0
 21
140.0
 31
0.0
  0
LINE
  5
108
100
AcDbEntity
  8
0
 62
256
370
-1
 48
1.0
  6
BYLAYER
100
AcDbLine
 10
110.0
 20
340.0
 30
0.0
 11
40.0
 21
340.0
 31
0.0
  0
LINE
  5
109
100
AcDbEntity
  8
0
 62
256
370
-1
 48
1.0
  6
BYLAYER
100
AcDbLine
 10
1426.0
 20
140.0
 30
0.0
 11
1394.0
 21
140.0
 31
0.0
  0
LINE
  5
10A
100
AcDbEntity
  8
0
 62
256
370
-1
 48
1.0
  6
BYLAYER
100
AcDbLine
 10
1388.0
 20
140.0
 30
0.0
 11
1356.0
 21
140.0
 31
0.0
  0
LINE
  5
10B
100
AcDbEntity
  8
0
 62
256
370
-1
 48
1.0
  6
BYLAYER
100
AcDbLine
 10
292.0
 20
140.0
 30
0.0
 11
262.0
 21
110.0
 31
0.0
  0
LINE
  5
10C
100
AcDbEntity
  8
0
 62
256
370
-1
 48
1.0
  6
BYLAYER
100
AcDbLine
 10
444.0
 20
140.0
 30
0.0
 11
414.0
 21
110.0
 31
0.0
  0
LINE
  5
10D
100
AcDbEntity
  8
0
 62
256
370
-1
 48
1.0
  6
BYLAYER
100
AcDbLine
 10
748.0
 20
140.0
 30
0.0
 11
718.0
 21
110.0
 31
0.0
  0
LINE
  5
10E
100
AcDbEntity
  8
0
 62
256
370
-1
 48
1.0
  6
BYLAYER
100
AcDbLine
 10
900.0
 20
140.0
 30
0.0
 11
870.0
 21
110.0
 31
0.0
  0
LINE
  5
10F
100
AcDbEntity
  8
0
 62
256
370
-1
 48
1.0
  6
BYLAYER
100
AcDbLine
 10
1052.0
 20
140.0
 30
0.0
 11
1022.0
 21
110.0
 31
0.0
  0
LINE
  5
110
100
AcDbEntity
  8
0
 62
256
370
-1
 48
1.0
  6
BYLAYER
100
AcDbLine
 10
1204.0
 20
140.0
 30
0.0
 11
1174.0
 21
110.0
 31
0.0
  0
LINE
  5
111
100
AcDbEntity
  8
0
 62
256
370
-1
 48
1.0
  6
BYLAYER
100
AcDbLine
 10
40.0
 20
340.0
 30
0.0
 11
10.0
 21
310.0
 31
0.0
  0
LINE
  5
112
100
AcDbEntity
  8
0
 62
256
370
-1
 48
1.0
  6
BYLAYER
100
AcDbLine
 10
1356.0
 20
140.0
 30
0.0
 11
1326.0
 21
110.0
 31
0.0
  0
LINE
  5
113
100
AcDbEntity
  8
0
 62
256
370
-1
 48
1.0
  6
BYLAYER
100
AcDbLine
 10
262.0
 20
110.0
 30
0.0
 11
262.0
 21
40.0
 31
0.0
  0
LINE
  5
114
100
AcDbEntity
  8
0
 62
256
370
-1
 48
1.0
  6
BYLAYER
100
AcDbLine
 10
414.0
 20
110.0
 30
0.0
 11
414.0
 21
40.0
 31
0.0
  0
LINE
  5
115
100
AcDbEntity
  8
0
 62
256
370
-1
 48
1.0
  6
BYLAYER
100
AcDbLine
 10
718.0
 20
110.0
 30
0.0
 11
718.0
 21
40.0
 31
0.0
  0
LINE
  5
116
100
AcDbEntity
  8
0
 62
256
370
-1
 48
1.0
  6
BYLAYER
100
AcDbLine
 10
870.0
 20
110.0
 30
0.0
 11
870.0
 21
40.0
 31
0.0
  0
LINE
  5
117
100
AcDbEntity
  8
0
 62
256
370
-1
 48
1.0
  6
BYLAYER
100
AcDbLine
 10
1022.0
 20
110.0
 30
0.0
 11
1022.0
 21
40.0
 31
0.0
  0
LINE
  5
118
100
AcDbEntity
  8
0
 62
256
370
-1
 48
1.0
  6
BYLAYER
100
AcDbLine
 10
1174.0
 20
110.0
 30
0.0
 11
1174.0
 21
40.0
 31
0.0
  0
LINE
  5
119
100
AcDbEntity
  8
0
 62
256
370
-1
 48
1.0
  6
BYLAYER
100
AcDbLine
 10
10.0
 20
310.0
 30
0.0
 11
10.0
 21
240.0
 31
0.0
  0
LINE
  5
11A
100
AcDbEntity
  8
0
 62
256
370
-1
 48
1.0
  6
BYLAYER
100
AcDbLine
 10
1326.0
 20
110.0
 30
0.0
 11
1326.0
 21
40.0
 31
0.0
  0
CIRCLE
  5
11B
100
AcDbEntity
  8
0
 62
256
370
-1
 48
1.0
  6
BYLAYER
100
AcDbCircle
 10
631.0
 20
75.0
 30
0.0
 40
8.0
  0
CIRCLE
  5
11C
100
AcDbEntity
  8
0
 62
256
370
-1
 48
1.0
  6
BYLAYER
100
AcDbCircle
 10
47.0
 20
75.0
 30
0.0
 40
35.0
  0
CIRCLE
  5
11D
100
AcDbEntity
  8
0
 62
256
370
-1
 48
1.0
  6
BYLAYER
100
AcDbCircle
 10
50.0
 20
440.0
 30
0.0
 40
35.0
  0
CIRCLE
  5
11E
100
AcDbEntity
  8
0
 62
256
370
-1
 48
1.0
  6
BYLAYER
100
AcDbCircle
 10
47.0
 20
75.0
 30
0.0
 40
50.0
  0
LINE
  5
11F
100
AcDbEntity
  8
0
 62
256
370
-1
 48
1.0
  6
BYLAYER
100
AcDbLine
 10
1394.0
 20
140.0
 30
0.0
 11
1394.0
 21
150.0
 31
0.0
  0
LINE
  5
120
100
AcDbEntity
  8
0
 62
256
370
-1
 48
1.0
  6
BYLAYER
100
AcDbLine
 10
1388.0
 20
140.0
 30
0.0
 11
1388.0
 21
150.0
 31
0.0
  0
CIRCLE
  5
121
100
AcDbEntity
  8
0
 62
256
370
-1
 48
1.0
  6
BYLAYER
100
AcDbCircle
 10
1447.6421356237311
 20
18.357864376269049
 30
0.0
 40
1.0
  0
CIRCLE
  5
122
100
AcDbEntity
  8
0
 62
256
370
-1
 48
1.0
  6
BYLAYER
100
AcDbCircle
 10
1295.6421356237311
 20
18.357864376269049
 30
0.0
 40
1.0
  0
CIRCLE
  5
123
100
AcDbEntity
  8
0
 62
256
370
-1
 48
1.0
  6
BYLAYER
100
AcDbCircle
 10
1143.6421356237311
 20
18.357864376269049
 30
0.0
 40
1.0
  0
CIRCLE
  5
124
100
AcDbEntity
  8
0
 62
256
370
-1
 48
1.0
  6
BYLAYER
100
AcDbCircle
 10
1334.3578643762689
 20
18.357864376269049
 30
0.0
 40
1.0
  0
CIRCLE
  5
125
100
AcDbEntity
  8
0
 62
256
370
-1
 48
1.0
  6
BYLAYER
100
AcDbCircle
 10
1182.3578643762689
 20
18.357864376269049
 30
0.0
 40
1.0
  0
CIRCLE
  5
126
100
AcDbEntity
  8
0
 62
256
370
-1
 48
1.0
  6
BYLAYER
100
AcDbCircle
 10
1030.3578643762689
 20
18.357864376269049
 30
0.0
 40
1.0
  0
CIRCLE
  5
127
100
AcDbEntity
  8
0
 62
256
370
-1
 48
1.0
  6
BYLAYER
100
AcDbCircle
 10
1447.6421356237311
 20
131.64213562373095
 30
0.0
 40
1.0
  0
CIRCLE
  5
128
100
AcDbEntity
  8
0
 62
256
370
-1
 48
1.0
  6
BYLAYER
100
AcDbCircle
 10
1295.6421356237311
 20
131.64213562373095
 30
0.0
 40
1.0
  0
CIRCLE
  5
129
100
AcDbEntity
  8
0
 62
256
370
-1
 48
1.0
  6
BYLAYER
100
AcDbCircle
 10
1143.6421356237311
 20
131.64213562373095
 30
0.0
 40
1.0
  0
CIRCLE
  5
12A
100
AcDbEntity
  8
0
 62
256
370
-1
 48
1.0
  6
BYLAYER
100
AcDbCircle
 10
1334.3578643762689
 20
131.64213562373095
 30
0.0
 40
1.0
  0
CIRCLE
  5
12B
100
AcDbEntity
  8
0
 62
256
370
-1
 48
1.0
  6
BYLAYER
100
AcDbCircle
 10
1182.3578643762689
 20
131.64213562373095
 30
0.0
 40
1.0
  0
CIRCLE
  5
12C
100
AcDbEntity
  8
0
 62
256
370
-1
 48
1.0
  6
BYLAYER
100
AcDbCircle
 10
1030.3578643762689
 20
131.64213562373095
 30
0.0
 40
1.0
  0
CIRCLE
  5
12D
100
AcDbEntity
  8
0
 62
256
370
-1
 48
1.0
  6
BYLAYER
100
AcDbCircle
 10
283.64213562373106
 20
331.64213562373095
 30
0.0
 40
2.0
  0
CIRCLE
  5
12E
100
AcDbEntity
  8
0
 62
256
370
-1
 48
1.0
  6
BYLAYER
100
AcDbCircle
 10
131.64213562373106
 20
331.64213562373095
 30
0.0
 40
2.0
  0
CIRCLE
  5
12F
100
AcDbEntity
  8
0
 62
256
370
-1
 48
1.0
  6
BYLAYER
100
AcDbCircle
 10
170.35786437626894
 20
331.64213562373095
 30
0.0
 40
2.0
  0
CIRCLE
  5
130
100
AcDbEntity
  8
0
 62
256
370
-1
 48
1.0
  6
BYLAYER
100
AcDbCircle
 10
18.357864376268935
 20
331.64213562373095
 30
0.0
 40
2.0
  0
CIRCLE
  5
131
100
AcDbEntity
  8
0
 62
256
370
-1
 48
1.0
  6
BYLAYER
100
AcDbCircle
 10
170.35786437626894
 20
218.35786437626905
 30
0.0
 40
2.0
  0
CIRCLE
  5
132
100
AcDbEntity
  8
0
 62
256
370
-1
 48
1.0
  6
BYLAYER
100
AcDbCircle
 10
18.357864376268935
 20
218.35786437626905
 30
0.0
 40
2.0
  0
CIRCLE
  5
133
100
AcDbEntity
  8
0
 62
256
370
-1
 48
1.0
  6
BYLAYER
100
AcDbCircle
 10
283.64213562373106
 20
218.35786437626905
 30
0.0
 40
2.0
  0
CIRCLE
  5
134
100
AcDbEntity
  8
0
 62
256
370
-1
 48
1.0
  6
BYLAYER
100
AcDbCircle
 10
131.64213562373106
 20
218.35786437626905
 30
0.0
 40
2.0
  0
MTEXT
  5
135
100
AcDbEntity
  8
Instructions
 62
256
370
-1
 48
1.0
  6
BYLAYER
100
AcDbMText
 10
-20.0
 20
100.0
 30
0.0
 40
24.0
 41
0.0
 71
3
 72
1
  1
Top of Base\P(7mm Plywood)
  7
textstyle0
 50
0.0
 73
2
 44
0.8
  0
MTEXT
  5
136
100
AcDbEntity
  8
Instructions
 62
256
370
-1
 48
1.0
  6
BYLAYER
100
AcDbMText
 10
-20.0
 20
300.0
 30
0.0
 40
24.0
 41
0.0
 71
3
 72
1
  1
Bottom of Base\P(7mm Plywood)
  7
textstyle4
 50
0.0
 73
2
 44
0.8
  0
MTEXT
  5
137
100
AcDbEntity
  8
Instructions
 62
256
370
-1
 48
1.0
  6
BYLAYER
100
AcDbMText
 10
-20.0
 20
500.0
 30
0.0
 40
24.0
 41
0.0
 71
3
 72
1
  1
End Caps\P(7mm Plywood)
  7
textstyle3
 50
0.0
 73
2
 44
0.8
  0
TEXT
  5
138
100
AcDbEntity
  8
Instructions
 62
256
370
-1
 48
1.0
  6
BYLAYER
100
AcDbText
 10
88.0
 20
0.0
 30
0.0
 40
10.0
  1
EVA Foam pad
 50
0.0
 41
1.0
  7
textstyle5
 71
0
 72
1
 11
473.0
 21
274.99999999999994
 31
0.0
100
AcDbText
 73
2
  0
MTEXT
  5
139
100
AcDbEntity
  8
Instructions
 62
256
370
-1
 48
1.0
  6
BYLAYER
100
AcDbMText
 10
49.999999999999979
 20
509.99999999999994
 30
0.0
 40
10.0
 41
0.0
 71
2
 72
1
  1
Top\POuter
  7
textstyle7
 50
0.0
 73
2
 44
0.8
  0
MTEXT
  5
13A
100
AcDbEntity
  8
Instructions
 62
256
370
-1
 48
1.0
  6
BYLAYER
100
AcDbMText
 10
249.99999999999994
 20
510.0
 30
0.0
 40
10.0
 41
0.0
 71
2
 72
1
  1
Bottom\POuter
  7
textstyle1
 50
0.0
 73
2
 44
0.8
  0
MTEXT
  5
13B
100
AcDbEntity
  8
Instructions
 62
256
370
-1
 48
1.0
  6
BYLAYER
100
AcDbMText
 10
150.0
 20
510.0
 30
0.0
 40
10.0
 41
0.0
 71
2
 72
1
  1
Top\PInner
  7
textstyle6
 50
0.0
 73
2
 44
0.8
  0
MTEXT
  5
13C
100
AcDbEntity
  8
Instructions
 62
256
370
-1
 48
1.0
  6
BYLAYER
100
AcDbMText
 10
350.0
 20
509.99999999999994
 30
0.0
 40
10.0
 41
0.0
 71
2
 72
1
  1
Bottom\PInner
  7
textstyle2
 50
0.0
 73
2
 44
0.8
  0
CIRCLE
  5
13D
100
AcDbEntity
  8
0
 62
256
370
-1
 48
1.0
  6
BYLAYER
100
AcDbCircle
 10
350.0
 20
465.0
 30
0.0
 40
1.0
  0
CIRCLE
  5
13E
100
AcDbEntity
  8
0
 62
256
370
-1
 48
1.0
  6
BYLAYER
100
AcDbCircle
 10
328.34936490538905
 20
427.5
 30
0.0
 40
1.0
  0
CIRCLE
  5
13F
100
AcDbEntity
  8
0
 62
256
370
-1
 48
1.0
  6
BYLAYER
100
AcDbCircle
 10
371.65063509461095
 20
427.5
 30
0.0
 40
1.0
  0
LINE
  5
140
100
AcDbEntity
  8
0
 62
256
370
-1
 48
1.0
  6
BYLAYER
100
AcDbLine
 10
344.18565756346362
 20
455.97477455336042
 30
0.0
 11
340.08141584355559
 21
467.25108600279134
 31
0.0
  0
LINE
  5
141
100
AcDbEntity
  8
0
 62
256
370
-1
 48
1.0
  6
BYLAYER
100
AcDbLine
 10
333.25826819879245
 20
437.04798097966221
 30
0.0
 11
321.44057516264593
 21
434.96420284765907
 31
0.0
  0
LINE
  5
142
100
AcDbEntity
  8
0
 62
256
370
-1
 48
1.0
  6
BYLAYER
100
AcDbLine
 10
339.07261063532883
 20
426.97724446697737
 30
0.0
 11
331.3591593190904
 21
417.78471114954959
 31
0.0
  0
LINE
  5
143
100
AcDbEntity
  8
0
 62
256
370
-1
 48
1.0
  6
BYLAYER
100
AcDbLine
 10
360.92738936467111
 20
426.97724446697731
 30
0.0
 11
368.6408406809096
 21
417.78471114954959
 31
0.0
  0
LINE
  5
144
100
AcDbEntity
  8
0
 62
256
370
-1
 48
1.0
  6
BYLAYER
100
AcDbLine
 10
366.74173180120749
 20
437.04798097966221
 30
0.0
 11
378.55942483735402
 21
434.96420284765901
 31
0.0
  0
LINE
  5
145
100
AcDbEntity
  8
0
 62
256
370
-1
 48
1.0
  6
BYLAYER
100
AcDbLine
 10
355.81434243653644
 20
455.97477455336042
 30
0.0
 11
359.91858415644452
 21
467.25108600279134
 31
0.0
  0
LINE
  5
146
100
AcDbEntity
  8
0
 62
256
370
-1
 48
1.0
  6
BYLAYER
100
AcDbLine
 10
144.18565756346362
 20
455.97477455336042
 30
0.0
 11
140.08141584355559
 21
467.25108600279134
 31
0.0
  0
LINE
  5
147
100
AcDbEntity
  8
0
 62
256
370
-1
 48
1.0
  6
BYLAYER
100
AcDbLine
 10
133.25826819879245
 20
437.04798097966221
 30
0.0
 11
121.44057516264593
 21
434.96420284765907
 31
0.0
  0
LINE
  5
148
100
AcDbEntity
  8
0
 62
256
370
-1
 48
1.0
  6
BYLAYER
100
AcDbLine
 10
139.07261063532883
 20
426.97724446697737
 30
0.0
 11
131.3591593190904
 21
417.78471114954959
 31
0.0
  0
LINE
  5
149
100
AcDbEntity
  8
0
 62
256
370
-1
 48
1.0
  6
BYLAYER
100
AcDbLine
 10
160.92738936467111
 20
426.97724446697731
 30
0.0
 11
168.6408406809096
 21
417.78471114954959
 31
0.0
  0
LINE
  5
14A
100
AcDbEntity
  8
0
 62
256
370
-1
 48
1.0
  6
BYLAYER
100
AcDbLine
 10
166.74173180120749
 20
437.04798097966221
 30
0.0
 11
178.55942483735402
 21
434.96420284765901
 31
0.0
  0
LINE
  5
14B
100
AcDbEntity
  8
0
 62
256
370
-1
 48
1.0
  6
BYLAYER
100
AcDbLine
 10
155.81434243653644
 20
455.97477455336042
 30
0.0
 11
159.91858415644452
 21
467.25108600279134
 31
0.0
  0
ARC
  5
14C
100
AcDbEntity
  8
0
 62
256
370
-1
 48
1.0
  6
BYLAYER
100
AcDbCircle
 10
350.0
 20
440.0
 30
0.0
 40
29.0
100
AcDbArc
 50
110.00000000000004
 51
189.99999999999986
  0
ARC
  5
14D
100
AcDbEntity
  8
0
 62
256
370
-1
 48
1.0
  6
BYLAYER
100
AcDbCircle
 10
350.0
 20
440.0
 30
0.0
 40
29.0
100
AcDbArc
 50
230.00000000000006
 51
309.99999999999989
  0
ARC
  5
14E
100
AcDbEntity
  8
0
 62
256
370
-1
 48
1.0
  6
BYLAYER
100
AcDbCircle
 10
350.0
 20
440.0
 30
0.0
 40
29.0
100
AcDbArc
 50
350.0
 51
69.999999999999815
  0
ARC
  5
14F
100
AcDbEntity
  8
0
 62
256
370
-1
 48
1.0
  6
BYLAYER
100
AcDbCircle
 10
150.0
 20
440.0
 30
0.0
 40
29.0
100
AcDbArc
 50
110.00000000000004
 51
189.99999999999986
  0
ARC
  5
150
100
AcDbEntity
  8
0
 62
256
370
-1
 48
1.0
  6
BYLAYER
100
AcDbCircle
 10
150.0
 20
440.0
 30
0.0
 40
29.0
100
AcDbArc
 50
230.00000000000006
 51
309.99999999999989
  0
ARC
  5
151
100
AcDbEntity
  8
0
 62
256
370
-1
 48
1.0
  6
BYLAYER
100
AcDbCircle
 10
150.0
 20
440.0
 30
0.0
 40
29.0
100
AcDbArc
 50
350.0
 51
69.999999999999815
  0
ARC
  5
152
100
AcDbEntity
  8
0
 62
256
370
-1
 48
1.0
  6
BYLAYER
100
AcDbCircle
 10
350.0
 20
440.0
 30
0.0
 40
17.0
100
AcDbArc
 50
110.00000000000004
 51
189.99999999999989
  0
ARC
  5
153
100
AcDbEntity
  8
0
 62
256
370
-1
 48
1.0
  6
BYLAYER
100
AcDbCircle
 10
350.0
 20
440.0
 30
0.0
 40
17.0
100
AcDbArc
 50
230.00000000000006
 51
309.99999999999989
  0
ARC
  5
154
100
AcDbEntity
  8
0
 62
256
370
-1
 48
1.0
  6
BYLAYER
100
AcDbCircle
 10
350.0
 20
440.0
 30
0.0
 40
17.0
100
AcDbArc
 50
350.0
 51
69.999999999999872
  0
ARC
  5
155
100
AcDbEntity
  8
0
 62
256
370
-1
 48
1.0
  6
BYLAYER
100
AcDbCircle
 10
150.0
 20
440.0
 30
0.0
 40
17.0
100
AcDbArc
 50
110.00000000000004
 51
189.99999999999989
  0
ARC
  5
156
100
AcDbEntity
  8
0
 62
256
370
-1
 48
1.0
  6
BYLAYER
100
AcDbCircle
 10
150.0
 20
440.0
 30
0.0
 40
17.0
100
AcDbArc
 50
230.00000000000006
 51
309.99999999999989
  0
ARC
  5
157
100
AcDbEntity
  8
0
 62
256
370
-1
 48
1.0
  6
BYLAYER
100
AcDbCircle
 10
150.0
 20
440.0
 30
0.0
 40
17.0
100
AcDbArc
 50
350.0
 51
69.999999999999872
  0
CIRCLE
  5
158
100
AcDbEntity
  8
0
 62
256
370
-1
 48
1.0
  6
BYLAYER
100
AcDbCircle
 10
250.0
 20
465.0
 30
0.0
 40
2.0
  0
CIRCLE
  5
159
100
AcDbEntity
  8
0
 62
256
370
-1
 48
1.0
  6
BYLAYER
100
AcDbCircle
 10
228.34936490538902
 20
427.5
 30
0.0
 40
2.0
  0
CIRCLE
  5
15A
100
AcDbEntity
  8
0
 62
256
370
-1
 48
1.0
  6
BYLAYER
100
AcDbCircle
 10
271.65063509461095
 20
427.5
 30
0.0
 40
2.0
  0
ENDSEC
  0
SECTION
  2
OBJECTS
  0
DICTIONARY
  5
C
100
AcDbDictionary
280
0
281
1
  3
ACAD_GROUP
350
D
  3
ACAD_LAYOUT
350
1A
  3
ACAD_MLINESTYLE
350
17
  3
ACAD_PLOTSETTINGS
350
19
  3
ACAD_PLOTSTYLENAME
350
E
  3
AcDbVariableDictionary
350
15B
  3
QCAD_OBJECTS
350
15C
  0
DICTIONARY
  5
D
100
AcDbDictionary
280
0
281
1
  0
ACDBDICTIONARYWDFLT
  5
E
100
AcDbDictionary
281
1
  3
Normal
350
F
100
AcDbDictionaryWithDefault
340
F
  0
ACDBPLACEHOLDER
  5
F
  0
DICTIONARY
  5
17
100
AcDbDictionary
280
0
281
1
  3
Standard
350
18
  0
MLINESTYLE
  5
18
100
AcDbMlineStyle
  2
STANDARD
 70
0
  3

 62
256
 51
90.0
 52
90.0
 71
2
 49
0.5
 62
256
  6
BYLAYER
 49
-0.5
 62
256
  6
BYLAYER
  0
DICTIONARY
  5
19
100
AcDbDictionary
280
0
281
1
  0
DICTIONARY
  5
1A
100
AcDbDictionary
281
1
  3
Layout1
350
1E
  3
Layout2
350
26
  3
Model
350
22
  0
LAYOUT
  5
1E
100
AcDbPlotSettings
  1

  2
none_device
  4

  6

 40
0.0
 41
0.0
 42
0.0
 43
0.0
 44
0.0
 45
0.0
 46
0.0
 47
0.0
 48
0.0
 49
0.0
140
0.0
141
0.0
142
1.0
143
1.0
 70
688
 72
0
 73
0
 74
5
  7

 75
16
147
1.0
148
0.0
149
0.0
100
AcDbLayout
  1
Layout1
 70
1
 71
1
 10
0.0
 20
0.0
 11
420.0
 21
297.0
 12
0.0
 22
0.0
 32
0.0
 14
100000000000000000000.0
 24
100000000000000000000.0
 34
100000000000000000000.0
 15
-100000000000000000000.0
 25
-100000000000000000000.0
 35
-100000000000000000000.0
146
0.0
 13
0.0
 23
0.0
 33
0.0
 16
1.0
 26
0.0
 36
0.0
 17
0.0
 27
1.0
 37
0.0
 76
0
330
1B
  0
LAYOUT
  5
22
100
AcDbPlotSettings
  1

  2
none_device
  4

  6

 40
0.0
 41
0.0
 42
0.0
 43
0.0
 44
0.0
 45
0.0
 46
0.0
 47
0.0
 48
0.0
 49
0.0
140
0.0
141
0.0
142
1.0
143
1.0
 70
1712
 72
0
 73
0
 74
0
  7

 75
0
147
1.0
148
0.0
149
0.0
100
AcDbLayout
  1
Model
 70
1
 71
0
 10
0.0
 20
0.0
 11
12.0
 21
9.0
 12
0.0
 22
0.0
 32
0.0
 14
0.0
 24
0.0
 34
0.0
 15
0.0
 25
0.0
 35
0.0
146
0.0
 13
0.0
 23
0.0
 33
0.0
 16
1.0
 26
0.0
 36
0.0
 17
0.0
 27
1.0
 37
0.0
 76
0
330
1F
  0
LAYOUT
  5
26
100
AcDbPlotSettings
  1

  2
none_device
  4

  6

 40
0.0
 41
0.0
 42
0.0
 43
0.0
 44
0.0
 45
0.0
 46
0.0
 47
0.0
 48
0.0
 49
0.0
140
0.0
141
0.0
142
1.0
143
1.0
 70
688
 72
0
 73
0
 74
5
  7

 75
16
147
1.0
148
0.0
149
0.0
100
AcDbLayout
  1
Layout2
 70
1
 71
2
 10
0.0
 20
0.0
 11
12.0
 21
9.0
 12
0.0
 22
0.0
 32
0.0
 14
0.0
 24
0.0
 34
0.0
 15
0.0
 25
0.0
 35
0.0
146
0.0
 13
0.0
 23
0.0
 33
0.0
 16
1.0
 26
0.0
 36
0.0
 17
0.0
 27
1.0
 37
0.0
 76
0
330
23
  0
DICTIONARY
  5
15B
100
AcDbDictionary
281
1
  3
DIMASSOC
350
15E
  3
HIDETEXT
350
15D
  0
DICTIONARYVAR
  5
15D
100
DictionaryVariables
280
0
  1
2
  0
DICTIONARYVAR
  5
15E
100
DictionaryVariables
280
0
  1
1
  0
DICTIONARY
  5
15C
100
AcDbDictionary
281
1
  3
ColorSettings/BackgroundColor
350
15F
  3
ColorSettings/ColorMode
350
160
  3
Grid/DisplayGrid00
350
161
  3
Grid/DisplayGrid01
350
162
  3
Grid/DisplayGrid02
350
163
  3
Grid/DisplayGrid03
350
164
  3
Grid/GridSpacingX00
350
165
  3
Grid/GridSpacingX01
350
166
  3
Grid/GridSpacingX02
350
167
  3
Grid/GridSpacingX03
350
168
  3
Grid/GridSpacingY00
350
169
  3
Grid/GridSpacingY01
350
16A
  3
Grid/GridSpacingY02
350
16B
  3
Grid/GridSpacingY03
350
16C
  3
Grid/IsometricGrid00
350
16D
  3
Grid/IsometricGrid01
350
16E
  3
Grid/IsometricGrid02
350
16F
  3
Grid/IsometricGrid03
350
170
  3
Grid/IsometricProjection00
350
171
  3
Grid/IsometricProjection01
350
172
  3
Grid/IsometricProjection02
350
173
  3
Grid/IsometricProjection03
350
174
  3
Grid/MetaGridSpacingX00
350
175
  3
Grid/MetaGridSpacingX01
350
176
  3
Grid/MetaGridSpacingX02
350
177
  3
Grid/MetaGridSpacingX03
350
178
  3
Grid/MetaGridSpacingY00
350
179
  3
Grid/MetaGridSpacingY01
350
17A
  3
Grid/MetaGridSpacingY02
350
17B
  3
Grid/MetaGridSpacingY03
350
17C
  3
MultiPageSettings/Columns
350
17D
  3
MultiPageSettings/GlueMarginsBottom
350
17E
  3
MultiPageSettings/GlueMarginsLeft
350
17F
  3
MultiPageSettings/GlueMarginsRight
350
180
  3
MultiPageSettings/GlueMarginsTop
350
181
  3
MultiPageSettings/PrintCropMarks
350
182
  3
MultiPageSettings/Rows
350
183
  3
PageSettings/OffsetX
350
184
  3
PageSettings/OffsetY
350
185
  3
PageSettings/PageOrientation
350
186
  3
PageSettings/PaperHeight
350
187
  3
PageSettings/PaperWidth
350
188
  3
PageSettings/Scale
350
189
  3
PageSettings/ShowPaperBorders
350
18A
  3
QCADVersion
350
18B
  3
UnitSettings/PaperUnit
350
18C
  3
ViewportCenter
350
18D
  3
ViewportHeight
350
18E
  3
ViewportWidth
350
18F
  0
XRECORD
  5
15F
330
15C
100
AcDbXrecord
280
1
1000
White
  0
XRECORD
  5
160
330
15C
100
AcDbXrecord
280
1
1000
FullColor
  0
XRECORD
  5
161
330
15C
100
AcDbXrecord
280
1
290
1
  0
XRECORD
  5
162
330
15C
100
AcDbXrecord
280
1
290
1
  0
XRECORD
  5
163
330
15C
100
AcDbXrecord
280
1
290
1
  0
XRECORD
  5
164
330
15C
100
AcDbXrecord
280
1
290
1
  0
XRECORD
  5
165
330
15C
100
AcDbXrecord
280
1
1000
auto
  0
XRECORD
  5
166
330
15C
100
AcDbXrecord
280
1
1000
auto
  0
XRECORD
  5
167
330
15C
100
AcDbXrecord
280
1
1000
auto
  0
XRECORD
  5
168
330
15C
100
AcDbXrecord
280
1
1000
auto
  0
XRECORD
  5
169
330
15C
100
AcDbXrecord
280
1
1000
auto
  0
XRECORD
  5
16A
330
15C
100
AcDbXrecord
280
1
1000
auto
  0
XRECORD
  5
16B
330
15C
100
AcDbXrecord
280
1
1000
auto
  0
XRECORD
  5
16C
330
15C
100
AcDbXrecord
280
1
1000
auto
  0
XRECORD
  5
16D
330
15C
100
AcDbXrecord
280
1
290
0
  0
XRECORD
  5
16E
330
15C
100
AcDbXrecord
280
1
290
0
  0
XRECORD
  5
16F
330
15C
100
AcDbXrecord
280
1
290
0
  0
XRECORD
  5
170
330
15C
100
AcDbXrecord
280
1
290
0
  0
XRECORD
  5
171
330
15C
100
AcDbXrecord
280
1
 90
65537
  0
XRECORD
  5
172
330
15C
100
AcDbXrecord
280
1
 90
65537
  0
XRECORD
  5
173
330
15C
100
AcDbXrecord
280
1
 90
65537
  0
XRECORD
  5
174
330
15C
100
AcDbXrecord
280
1
 90
65537
  0
XRECORD
  5
175
330
15C
100
AcDbXrecord
280
1
1000
auto
  0
XRECORD
  5
176
330
15C
100
AcDbXrecord
280
1
1000
auto
  0
XRECORD
  5
177
330
15C
100
AcDbXrecord
280
1
1000
auto
  0
XRECORD
  5
178
330
15C
100
AcDbXrecord
280
1
1000
auto
  0
XRECORD
  5
179
330
15C
100
AcDbXrecord
280
1
1000
auto
  0
XRECORD
  5
17A
330
15C
100
AcDbXrecord
280
1
1000
auto
  0
XRECORD
  5
17B
330
15C
100
AcDbXrecord
280
1
1000
auto
  0
XRECORD
  5
17C
330
15C
100
AcDbXrecord
280
1
1000
auto
  0
XRECORD
  5
17D
330
15C
100
AcDbXrecord
280
1
 90
1
  0
XRECORD
  5
17E
330
15C
100
AcDbXrecord
280
1
 40
10.0
  0
XRECORD
  5
17F
330
15C
100
AcDbXrecord
280
1
 40
10.0
  0
XRECORD
  5
180
330
15C
100
AcDbXrecord
280
1
 40
10.0
  0
XRECORD
  5
181
330
15C
100
AcDbXrecord
280
1
 40
10.0
  0
XRECORD
  5
182
330
15C
100
AcDbXrecord
280
1
290
0
  0
XRECORD
  5
183
330
15C
100
AcDbXrecord
280
1
 90
1
  0
XRECORD
  5
184
330
15C
100
AcDbXrecord
280
1
 40
0.0
  0
XRECORD
  5
185
330
15C
100
AcDbXrecord
280
1
 40
0.0
  0
XRECORD
  5
186
330
15C
100
AcDbXrecord
280
1
1000
Portrait
  0
XRECORD
  5
187
330
15C
100
AcDbXrecord
280
1
 40
297.0
  0
XRECORD
  5
188
330
15C
100
AcDbXrecord
280
1
 40
210.0
  0
XRECORD
  5
189
330
15C
100
AcDbXrecord
280
1
1000
1:1
  0
XRECORD
  5
18A
330
15C
100
AcDbXrecord
280
1
290
1
  0
XRECORD
  5
18B
330
15C
100
AcDbXrecord
280
1
1000
3.20.1
  0
XRECORD
  5
18C
330
15C
100
AcDbXrecord
280
1
 90
4
  0
XRECORD
  5
18E
330
15C
100
AcDbXrecord
280
1
 40
147.44071127413034
  0
XRECORD
  5
18F
330
15C
100
AcDbXrecord
280
1
 40
314.3729301905214
  0
ENDSEC
  0
EOF
